<svg width="118" height="134" viewBox="0 0 118 134" fill="none" xmlns="http://www.w3.org/2000/svg">
<path d="M58.5869 133.912C67.8247 133.912 75.3181 126.419 75.3181 117.173H41.8557C41.8557 126.419 49.349 133.912 58.5869 133.912ZM114.922 94.7562C109.869 89.3264 100.414 81.1583 100.414 54.4019C100.414 34.0797 86.1645 17.8114 66.9512 13.8202V8.36953C66.9512 3.74798 63.2058 0 58.5869 0C53.9679 0 50.2226 3.74798 50.2226 8.36953V13.8202C31.0093 17.8114 16.7602 34.0797 16.7602 54.4019C16.7602 81.1583 7.30521 89.3264 2.25211 94.7562C0.68282 96.4431 -0.0128966 98.4597 0.000180831 100.434C0.0289511 104.724 3.39507 108.804 8.39586 108.804H108.778C113.779 108.804 117.147 104.724 117.174 100.434C117.187 98.4597 116.491 96.4405 114.922 94.7562Z" fill="#D29832"/>
</svg>
