<svg width="195" height="193" viewBox="0 0 195 193" fill="none" xmlns="http://www.w3.org/2000/svg">
<path d="M172.22 165.103C168.246 169.236 164.486 171.901 161.515 174.007C126.594 198.759 85.2734 191.544 76.492 189.783C63.524 187.181 38.4573 182.151 20.3347 161.097C-7.08379 129.244 -2.81408 79.0607 18.4534 45.9339C22.3438 39.8748 42.8927 6.24304 84.6583 0.84979C109.934 -2.41401 139.399 4.16902 160.735 21.8286C205.523 58.8979 202.334 133.783 172.22 165.103Z" fill="url(#paint0_linear_527_1748)"/>
<path d="M98.3447 184.687C98.3447 184.687 136.477 88.3544 193.126 77.8315C194.131 77.6449 195.047 78.448 194.998 79.4695C194.425 91.3518 187.169 154.239 98.3454 184.687H98.3447Z" fill="#EFC59F"/>
<path opacity="0.62" d="M182.948 93.4563C180.055 97.5841 177.024 101.604 173.952 105.593C173.184 106.591 172.4 107.576 171.625 108.567C170.845 109.554 170.08 110.555 169.285 111.531L166.91 114.466C166.114 115.442 165.336 116.431 164.521 117.391C162.902 119.319 161.299 121.26 159.667 123.178L154.722 128.887C151.367 132.642 148.015 136.4 144.557 140.061L141.984 142.826C141.136 143.757 140.237 144.64 139.367 145.549L134.114 150.981L128.726 156.28C127.826 157.161 126.935 158.052 126.017 158.914L123.238 161.475C121.382 163.178 119.545 164.902 117.656 166.571L111.917 171.489L110.476 172.71C109.991 173.113 109.521 173.531 109.025 173.92L106.06 176.264C105.074 177.048 104.075 177.816 103.084 178.592C102.091 179.366 101.097 180.139 100.097 180.904C100.021 180.963 99.911 180.948 99.8522 180.872C99.7961 180.798 99.8076 180.693 99.8766 180.634L99.8813 180.63C100.836 179.81 101.797 178.999 102.76 178.189C103.723 177.38 104.678 176.562 105.648 175.762L108.547 173.351C109.503 172.535 110.429 171.684 111.378 170.859L117.055 165.897L122.616 160.804L125.399 158.26C125.864 157.837 126.307 157.391 126.762 156.958L128.127 155.657L133.582 150.448C137.13 146.885 140.738 143.377 144.164 139.694C145.895 137.869 147.646 136.062 149.318 134.182C151.004 132.316 152.704 130.463 154.378 128.585L159.34 122.9C160.977 120.99 162.586 119.057 164.21 117.136C165.028 116.181 165.81 115.195 166.608 114.224L168.993 111.299C169.791 110.327 170.559 109.33 171.342 108.347C172.12 107.359 172.908 106.378 173.678 105.383C176.748 101.4 179.775 97.3759 182.657 93.2589L182.659 93.2562C182.715 93.1771 182.824 93.1582 182.902 93.2137C182.981 93.2691 183 93.3779 182.945 93.4563H182.948Z" fill="white"/>
<g opacity="0.79">
<path d="M89.1043 129.439C89.1043 129.439 107.642 44.3737 163.603 0.277177C164.333 -0.298112 165.413 0.0655833 165.635 0.967388C169.155 15.2117 187.483 106.065 89.1036 129.439H89.1043Z" fill="#D47E3E"/>
<path opacity="0.62" d="M157.662 24.8172C157.019 27.2854 156.271 29.7163 155.482 32.1365C154.692 34.5552 153.861 36.9619 152.979 39.3489C151.209 44.1215 149.281 48.8361 147.204 53.485C146.689 54.6491 146.145 55.8004 145.617 56.9591C145.086 58.1157 144.512 59.2528 143.962 60.4007C143.415 61.5506 142.824 62.6788 142.251 63.8152L141.383 65.5167L140.485 67.202C138.093 71.6976 135.573 76.1288 132.857 80.4391C130.132 84.7426 127.301 88.9833 124.247 93.0623C123.869 93.5748 123.498 94.0926 123.114 94.6003L121.942 96.1098L120.771 97.6187C120.378 98.1196 119.997 98.6307 119.585 99.1167L117.151 102.063L116.54 102.798L115.908 103.514L114.642 104.945C107.926 112.608 100.408 119.564 92.2795 125.689C92.2126 125.74 92.1173 125.726 92.0666 125.659C92.0172 125.594 92.0287 125.502 92.0916 125.45L92.095 125.448L95.0464 123.04L96.5242 121.841L97.9547 120.585L100.812 118.071L103.574 115.453C104.031 115.014 104.502 114.589 104.952 114.143L106.29 112.79C107.178 111.884 108.083 110.996 108.955 110.075C110.668 108.205 112.423 106.373 114.054 104.43L115.298 102.991L115.92 102.272L116.52 101.533L118.927 98.5881C119.335 98.1027 119.712 97.593 120.102 97.0928L121.262 95.5866L122.423 94.0804C122.804 93.5734 123.171 93.0563 123.545 92.5452C126.57 88.4736 129.373 84.241 132.07 79.947C134.781 75.6597 137.314 71.2608 139.711 66.7897L140.613 65.1138L141.483 63.4218C142.059 62.2915 142.652 61.17 143.201 60.0261C144.327 57.7527 145.414 55.4603 146.484 53.1592C148.609 48.5501 150.582 43.8707 152.404 39.1325C153.329 36.7685 154.202 34.3842 155.035 31.9864C155.454 30.7878 155.856 29.5845 156.245 28.3765C156.641 27.1711 157.019 25.957 157.368 24.7408V24.7381C157.392 24.6577 157.476 24.6111 157.556 24.634C157.636 24.657 157.682 24.7388 157.662 24.8186V24.8172Z" fill="white"/>
</g>
<g opacity="0.76">
<path d="M60.0222 124.874C60.0222 124.874 52.7929 49.4126 8.97219 5.50139C8.40096 4.9288 7.42952 5.13161 7.14357 5.88807C2.62711 17.8387 -22.614 94.4914 60.0222 124.874Z" fill="#D27842"/>
<path opacity="0.62" d="M11.8526 27.2935C12.6003 31.6443 13.5684 35.9654 14.675 40.2425C15.7641 44.5251 16.9897 48.7732 18.3525 52.9753C19.0421 55.0736 19.7458 57.1673 20.484 59.2487C20.8403 60.2938 21.2371 61.3248 21.6184 62.3611L22.1964 63.9132L22.8021 65.4545C24.413 69.5661 26.1497 73.6296 28.0493 77.6147C29.9347 81.6059 31.9181 85.5545 34.1111 89.3862C34.3822 89.8668 34.6458 90.3515 34.9217 90.8294L35.7687 92.2518L36.6158 93.6741C36.9004 94.1467 37.1735 94.6266 37.4757 95.0883L39.2495 97.8837L39.691 98.584L40.1533 99.2702L41.0788 100.642C42.2862 102.491 43.6112 104.258 44.8976 106.052C45.5554 106.938 46.2456 107.8 46.9182 108.676L47.9336 109.984C48.2763 110.416 48.6394 110.833 48.9882 111.26L51.1014 113.811L53.3073 116.282L54.4119 117.517L55.5631 118.708L57.8609 121.098L57.8636 121.101C57.9217 121.162 57.9197 121.258 57.8595 121.316C57.8007 121.373 57.7074 121.372 57.6493 121.316C51.2427 115.191 45.454 108.402 40.4325 101.083L39.4848 99.715L39.0109 99.0309L38.5579 98.3325L36.757 95.5332C36.4508 95.0701 36.1743 94.5894 35.8863 94.1156L35.0285 92.6892L34.1706 91.2628C33.8907 90.7842 33.6237 90.2974 33.3493 89.8154C31.1285 85.9723 29.1181 82.0129 27.2063 78.0095C25.304 74 23.5842 69.9074 21.9821 65.7716L21.3804 64.2208L20.8065 62.6599C20.4286 61.6175 20.0345 60.5811 19.6809 59.5299C19.324 58.4801 18.9454 57.4377 18.606 56.3824C18.2701 55.3258 17.9206 54.2732 17.5961 53.2132C14.9907 44.738 12.8268 36.1161 11.5491 27.3347C11.5369 27.2516 11.5944 27.1745 11.6776 27.1623C11.7593 27.1502 11.8351 27.2056 11.8493 27.2867L11.8506 27.2928L11.8526 27.2935Z" fill="white"/>
</g>
<path d="M21.1634 9.98955C20.5361 39.6017 18.5006 141.746 19.472 177.943C19.5748 181.777 22.2024 184.855 25.4804 184.981C41.6926 185.601 101.125 187.175 127.643 185.873C133.166 185.602 137.558 180.368 137.673 173.903C138.224 142.821 139.44 55.3995 136.55 15.351C136.204 10.5527 132.984 6.73184 128.888 6.25254C111.233 4.18596 51.5449 -0.864547 28.6354 0.87484C24.5036 1.18851 21.2662 5.14793 21.1634 9.98955Z" fill="url(#paint1_linear_527_1748)"/>
<path d="M28.3968 19.0747C27.5241 42.9765 24.7714 122.491 25.6455 151.894C25.7732 156.192 28.6686 159.667 32.338 159.918C47.447 160.952 98.9945 163.233 121.156 161.157C125.146 160.783 128.277 157.007 128.493 152.331C129.616 127.947 132.841 53.907 132.003 24.8336C131.869 20.1955 128.798 16.4078 124.847 15.9927C108.502 14.2756 53.7265 10.1905 34.8947 11.3924C31.3598 11.6182 28.5476 14.9361 28.3968 19.074V19.0747Z" fill="#F3D6BD"/>
<path d="M68.9253 6.74802C68.9253 7.65659 69.5303 8.40629 70.3064 8.45361C74.1353 8.68819 84.9225 9.35204 89.7432 9.67923C90.6937 9.74412 91.44 8.7443 91.2595 7.6505L91.2291 7.46392C91.106 6.7176 90.5767 6.15583 89.9298 6.08688C86.6714 5.73738 76.838 4.76865 70.3233 5.04108C69.5405 5.07353 68.9253 5.8327 68.9253 6.7487V6.74802Z" fill="url(#paint2_linear_527_1748)"/>
<path d="M76.4595 69.2052C88.9482 69.2052 99.0722 59.0811 99.0722 46.5925C99.0722 34.1038 88.9482 23.9797 76.4595 23.9797C63.9709 23.9797 53.8468 34.1038 53.8468 46.5925C53.8468 59.0811 63.9709 69.2052 76.4595 69.2052Z" fill="url(#paint3_linear_527_1748)"/>
<path d="M83.3833 38.0476C83.3833 41.8766 80.279 46.0104 76.4501 46.0104C72.6211 46.0104 69.5168 41.8766 69.5168 38.0476C69.5168 34.2187 72.6211 31.5024 76.4501 31.5024C80.279 31.5024 83.3833 34.2187 83.3833 38.0476Z" fill="white"/>
<path d="M67.8464 60.7524H84.7712C86.5525 60.7524 88.1303 59.6011 88.6731 57.9043L89.5837 55.0576C90.2503 52.9735 89.1666 50.7169 87.1115 49.9659C80.2236 47.4477 73.1018 47.7709 65.8062 50.1984C63.7626 50.8785 62.6283 53.0647 63.1921 55.1435L63.8931 57.7286C64.3771 59.5133 65.9975 60.7524 67.8471 60.7524H67.8464Z" fill="white"/>
<g opacity="0.71">
<path opacity="0.65" d="M119.831 92.4817H37.302C37.05 92.4817 36.8457 92.686 36.8457 92.938V104.863C36.8457 105.115 37.05 105.319 37.302 105.319H119.831C120.083 105.319 120.288 105.115 120.288 104.863V92.938C120.288 92.686 120.083 92.4817 119.831 92.4817Z" fill="white"/>
<path opacity="0.65" d="M119.381 113.427H36.8518C36.5998 113.427 36.3955 113.631 36.3955 113.883V125.808C36.3955 126.06 36.5998 126.264 36.8518 126.264H119.381C119.633 126.264 119.837 126.06 119.837 125.808V113.883C119.837 113.631 119.633 113.427 119.381 113.427Z" fill="white"/>
<path opacity="0.65" d="M103.268 134.879H50.4898C50.1788 134.879 49.9266 135.131 49.9266 135.442V150.682C49.9266 150.993 50.1788 151.245 50.4898 151.245H103.268C103.579 151.245 103.831 150.993 103.831 150.682V135.442C103.831 135.131 103.579 134.879 103.268 134.879Z" fill="white"/>
</g>
<path opacity="0.75" d="M89.4309 95.3892H41.3533C40.9053 95.3892 40.5421 95.7524 40.5421 96.2004V101.71C40.5421 102.158 40.9053 102.521 41.3533 102.521H89.4309C89.8789 102.521 90.2421 102.158 90.2421 101.71V96.2004C90.2421 95.7524 89.8789 95.3892 89.4309 95.3892Z" fill="white"/>
<g opacity="0.75">
<path d="M43.3884 122.193C44.8823 121.574 45.5918 119.861 44.973 118.367C44.3542 116.874 42.6415 116.164 41.1476 116.783C39.6537 117.402 38.9443 119.114 39.5631 120.608C40.1819 122.102 41.8945 122.812 43.3884 122.193Z" fill="white"/>
<path d="M50.3018 122.566C51.9188 122.566 53.2297 121.255 53.2297 119.638C53.2297 118.021 51.9188 116.71 50.3018 116.71C48.6848 116.71 47.374 118.021 47.374 119.638C47.374 121.255 48.6848 122.566 50.3018 122.566Z" fill="white"/>
<path d="M60.8806 120.679C61.2521 119.105 60.2774 117.529 58.7037 117.157C57.1299 116.786 55.553 117.76 55.1816 119.334C54.8101 120.908 55.7848 122.485 57.3586 122.856C58.9323 123.228 60.5092 122.253 60.8806 120.679Z" fill="white"/>
<path d="M66.0672 123.092C67.6842 123.092 68.995 121.781 68.995 120.164C68.995 118.547 67.6842 117.236 66.0672 117.236C64.4502 117.236 63.1394 118.547 63.1394 120.164C63.1394 121.781 64.4502 123.092 66.0672 123.092Z" fill="white"/>
<path d="M74.0996 123.016C75.7166 123.016 77.0274 121.705 77.0274 120.088C77.0274 118.471 75.7166 117.16 74.0996 117.16C72.4826 117.16 71.1718 118.471 71.1718 120.088C71.1718 121.705 72.4826 123.016 74.0996 123.016Z" fill="white"/>
<path d="M82.1334 123.166C83.7504 123.166 85.0612 121.855 85.0612 120.238C85.0612 118.621 83.7504 117.311 82.1334 117.311C80.5164 117.311 79.2056 118.621 79.2056 120.238C79.2056 121.855 80.5164 123.166 82.1334 123.166Z" fill="white"/>
</g>
<path d="M115.568 129.796L124.538 132.039L122.296 148.857C122.296 148.857 125.66 152.221 126.781 156.706C127.902 161.19 128.936 180.022 128.936 180.022L131.064 181.309L131.323 182.383L125.131 190.709L126.157 184.082C126.32 183.03 126.038 180.896 126.127 180.852C122.763 171.882 115.568 146.614 115.568 146.614V129.795V129.796Z" fill="url(#paint4_linear_527_1748)"/>
<path d="M112.947 182.499C113.045 182.498 113.14 182.505 113.237 182.499C112.804 177.092 110.823 153.292 108.841 144.372C106.598 134.282 112.204 114.099 112.204 114.099L122.296 124.191L116.69 143.252C120.532 149.015 116.063 182.763 116.159 182.748L116.153 182.824L117.616 184.835L117.438 185.925L108.502 191.199L112.018 185.488C112.576 184.582 112.885 183.554 112.947 182.499Z" fill="url(#paint5_linear_527_1748)"/>
<path d="M124.298 69.3438C124.298 69.3438 143.945 91.488 124.298 102.842L122.296 101.392C122.296 101.392 132.05 92.0518 122.296 80.617L124.298 69.3438Z" fill="url(#paint6_linear_527_1748)"/>
<path d="M107.913 192.025H110.765C111.299 192.025 111.802 191.78 112.128 191.357C113.017 190.202 114.859 187.948 115.74 187.889C116.926 187.81 116.774 192.025 116.774 192.025H117.439L118.28 186.787C118.492 185.469 117.837 184.163 116.653 183.546C116.653 183.546 116.382 185.551 114.913 186.437C113.443 187.324 108.933 190.498 108.933 190.498C108.933 190.498 108.38 190.419 107.773 190.529C106.873 190.692 106.999 192.025 107.913 192.025Z" fill="url(#paint7_linear_527_1748)"/>
<path d="M124.909 191.701L127.538 190.595C128.03 190.388 128.399 189.967 128.535 189.45C128.907 188.041 129.73 185.249 130.519 184.853C131.581 184.32 133.076 188.264 133.076 188.264L133.688 188.007L132.433 182.852C132.117 181.556 131.006 180.606 129.677 180.496C129.677 180.496 130.204 182.448 129.193 183.835C128.183 185.222 125.256 189.898 125.256 189.898C125.256 189.898 124.717 190.04 124.2 190.376C123.433 190.875 124.066 192.055 124.909 191.7L124.909 191.701Z" fill="url(#paint8_linear_527_1748)"/>
<path d="M109.635 97.0361C109.635 97.0361 109.965 99.0574 109.481 104.614C108.998 110.17 106.689 123.215 107.159 135.696C107.159 135.696 113.725 137.226 125.131 136.501C125.131 136.501 129.945 117.014 128.772 109.606C127.599 102.197 121.238 96.8833 121.238 96.8833L109.635 97.0361Z" fill="url(#paint9_linear_527_1748)"/>
<path d="M114.486 59.9078L113.684 69.3436H121.307L119.411 54.9404L114.486 59.9078Z" fill="url(#paint10_linear_527_1748)"/>
<path d="M123.566 68.0388C120.935 67.8935 115.052 67.6251 110.884 67.8522C108.69 67.9719 106.852 69.5463 106.403 71.6974L105.386 76.5688C105.008 78.3832 105.064 80.2612 105.551 82.0499L109.634 97.0365C109.634 97.0365 113.265 99.2187 121.237 96.8837C121.237 96.8837 128.238 80.1888 125.372 69.5092C125.15 68.6797 124.422 68.0868 123.564 68.0395L123.566 68.0388Z" fill="url(#paint11_linear_527_1748)"/>
<path d="M106.603 70.8234C105.48 73.7816 104.465 76.8832 103.376 79.7887C102.822 81.2428 102.26 82.6679 101.659 83.9766C101.355 84.6283 101.021 85.2273 100.715 85.7708C100.408 86.3082 100.063 86.7557 99.882 86.9619C99.8469 86.9923 99.9652 87.016 100.004 87.0174C100.028 87.0201 99.2452 87.1458 99.0052 87.1857L98.0669 87.1803C96.7216 87.1113 95.1979 86.874 93.6701 86.5773C90.5875 86.0027 87.3832 85.1955 84.0923 84.585L84.0673 84.5803C83.4379 84.4634 82.8322 84.8791 82.716 85.5092C82.6389 85.9242 82.795 86.3298 83.0898 86.5908C84.4168 87.7589 85.8229 88.7182 87.2818 89.6518C88.0159 90.1007 88.7629 90.5407 89.5228 90.9633C90.2975 91.358 91.0735 91.7555 91.88 92.124C93.5038 92.8318 95.1817 93.4834 97.1144 93.9019C97.6221 93.9871 98.1237 94.0763 98.6463 94.1459C99.2324 94.1662 99.7644 94.2183 100.405 94.1811C100.745 94.1473 101.086 94.1054 101.427 94.056C101.609 94.0243 101.742 94.0209 101.962 93.96C102.195 93.8897 102.429 93.8113 102.658 93.7255C103.138 93.5531 103.449 93.3449 103.839 93.1279C104.163 92.9142 104.458 92.6912 104.744 92.4627C105.801 91.5629 106.456 90.6692 107.035 89.812C107.612 88.9555 108.069 88.0969 108.479 87.2553C109.302 85.5747 109.945 83.9097 110.466 82.2332C111.523 78.8734 112.239 75.5711 112.541 72.0639C112.686 70.384 111.441 68.9049 109.761 68.7602C108.371 68.6406 107.118 69.472 106.646 70.7152L106.606 70.8234H106.603Z" fill="url(#paint12_linear_527_1748)"/>
<path d="M85.1273 86.0927L83.7671 82.8634L76.6068 81.0793C76.6068 81.0793 76.0342 82.3205 79.0411 82.8634C79.0411 82.8634 77.9669 84.0504 78.5402 85.4471C79.1128 86.8431 85.1996 88.2424 85.128 86.0927H85.1273Z" fill="url(#paint13_linear_527_1748)"/>
<path d="M111.258 49.0112C110.986 49.1714 108.841 56.7367 110.638 59.9079C112.436 63.0798 117.924 59.5273 119.411 54.9405C120.899 50.3545 118.509 44.7341 111.258 49.0105V49.0112Z" fill="url(#paint14_linear_527_1748)"/>
<path d="M125.483 54.9404C126.715 60.9718 130.794 59.3217 133.683 62.0048C138.366 66.3543 145.064 61.8702 151.576 65.9919C156.277 68.9677 158.542 76.5797 156.286 82.726C153.162 91.2384 142.483 94.7388 136.949 92.1463C131.661 89.6687 132.414 82.2474 125.298 79.379C122.276 78.1615 120.785 78.9525 118.976 77.1482C115.809 73.9892 116.664 67.8584 116.993 65.4964C117.707 60.3715 119.425 59.444 118.604 57.1916C117.007 52.811 109.557 53.7148 108.936 50.622C108.371 47.8058 113.771 42.4673 118.852 43.3089C126.715 44.6102 124.935 52.2533 125.484 54.9404H125.483Z" fill="url(#paint15_linear_527_1748)"/>
<path opacity="0.6" d="M153.938 81.2847C154.031 81.2847 154.115 81.2218 154.138 81.1272C155.144 76.9481 154.688 73.5207 152.78 70.9403C149.613 66.6578 143.459 66.2339 143.398 66.2298C143.301 66.2136 143.187 66.3089 143.18 66.4232C143.173 66.5367 143.259 66.6341 143.373 66.6408C143.433 66.6442 149.4 67.0586 152.45 71.1877C154.281 73.6653 154.714 76.9771 153.738 81.0312C153.711 81.1414 153.779 81.2529 153.89 81.2793C153.906 81.2827 153.922 81.2847 153.938 81.2847Z" fill="white"/>
<path opacity="0.72" d="M133.782 85.1102C133.79 85.1102 133.8 85.1089 133.809 85.1068C133.863 85.0926 133.896 85.0358 133.882 84.9811C132.902 81.2191 131.181 78.6063 128.769 77.215C127.014 76.2024 125.371 76.1084 123.921 76.0252C122.523 75.9448 121.316 75.8752 120.344 75.0112C118.336 73.2252 118.452 68.9305 120.69 62.2467C120.708 62.1926 120.678 62.1345 120.625 62.1162C120.571 62.098 120.513 62.1277 120.494 62.1811C118.228 68.9501 118.131 73.3178 120.207 75.164C121.232 76.0759 122.472 76.1476 123.909 76.2301C125.336 76.3119 126.953 76.4052 128.666 77.3928C131.029 78.755 132.717 81.3259 133.683 85.0331C133.695 85.0791 133.737 85.1102 133.783 85.1102H133.782Z" fill="white"/>
<path opacity="0.72" d="M122.57 53.4437C122.581 53.4437 122.592 53.4424 122.604 53.4383C122.658 53.42 122.686 53.3612 122.669 53.3078C121.889 50.9891 119.643 51.3332 117.264 51.6996C115.758 51.9315 114.201 52.1694 112.88 51.7787C111.894 51.4866 111.309 51.0337 111.14 50.4327C110.85 49.4092 111.863 48.2688 111.873 48.2566C111.912 48.2147 111.908 48.1492 111.866 48.1113C111.824 48.0734 111.758 48.0768 111.72 48.1187C111.675 48.1688 110.623 49.3545 110.941 50.4875C111.131 51.1608 111.763 51.6617 112.821 51.9747C114.187 52.379 115.766 52.137 117.295 51.9017C119.683 51.5353 121.748 51.2169 122.473 53.3727C122.487 53.416 122.528 53.4424 122.57 53.4424V53.4437Z" fill="white"/>
<path d="M145.263 30.0192C145.263 19.4038 154.255 10.7994 165.046 10.8008C175.518 10.8021 183.782 18.9535 183.782 29.0072C183.782 39.0609 175.518 47.6463 165.046 48.198C154.255 48.7665 145.263 40.6347 145.263 30.0192Z" fill="url(#paint16_linear_527_1748)"/>
<path d="M147.068 29.972C147.068 20.3516 155.217 12.5538 164.997 12.5544C174.488 12.5558 181.978 19.9433 181.978 29.0546C181.978 38.166 174.488 45.9469 164.997 46.4472C155.217 46.9623 147.068 39.5924 147.068 29.972Z" fill="url(#paint17_linear_527_1748)"/>
<path d="M159.188 28.8809H157.581V22.4777C157.581 19.9629 159.464 17.8375 161.96 17.534L165.246 17.1344C166.66 16.9627 168.082 17.4055 169.149 18.3506C170.215 19.295 170.826 20.6538 170.826 22.0781V27.6681H169.22V22.0781C169.22 21.1135 168.805 20.1927 168.083 19.5532C167.361 18.9137 166.397 18.6129 165.439 18.7298L162.154 19.1294C160.462 19.3349 159.187 20.7748 159.187 22.4777V28.8809H159.188Z" fill="white"/>
<path d="M157.106 27.4431L171.191 26.6629C171.763 26.6312 172.244 27.0868 172.244 27.6594V38.8177C172.244 39.3687 171.797 39.8155 171.246 39.8155H157.5C156.961 39.8155 156.52 39.3883 156.502 38.8501L156.164 28.4726C156.146 27.9305 156.565 27.4735 157.106 27.4437V27.4431Z" fill="white"/>
<path d="M166.5 36.619L165.648 34.1678C165.545 33.8731 165.615 33.5439 165.834 33.3214C166.271 32.8787 166.531 32.2615 166.501 31.5834C166.447 30.3875 165.47 29.4188 164.274 29.3728C162.95 29.3221 161.861 30.3801 161.861 31.6923C161.861 32.4203 162.196 33.0693 162.721 33.4952C162.993 33.7156 163.105 34.0786 162.99 34.4092L162.221 36.619C162.034 37.1565 162.434 37.7176 163.002 37.7176H165.719C166.288 37.7176 166.687 37.1565 166.501 36.619H166.5Z" fill="url(#paint18_linear_527_1748)"/>
<g opacity="0.3">
<path d="M47.8471 171.378C48.0174 171.737 47.9052 172.181 47.576 172.399C46.856 172.878 46.1057 173.331 45.3458 173.745C44.976 173.947 44.5197 173.795 44.3271 173.406C44.325 173.402 44.3223 173.397 44.3203 173.392C44.1378 173.006 44.2818 172.536 44.6468 172.337C45.3688 171.943 46.0813 171.513 46.7654 171.058C47.117 170.824 47.5841 170.934 47.8079 171.305C47.8221 171.328 47.8356 171.353 47.8471 171.378V171.378ZM41.9373 174.396C41.9502 174.424 41.9624 174.453 41.9725 174.483C42.1131 174.895 41.909 175.349 41.5162 175.495C40.7097 175.797 39.8829 176.065 39.0595 176.292C38.6566 176.404 38.2449 176.152 38.1361 175.727C38.0293 175.303 38.27 174.869 38.6722 174.758C39.4557 174.542 40.2405 174.287 41.0071 174.001C41.3708 173.865 41.769 174.041 41.9373 174.396ZM35.5389 175.971C35.576 176.05 35.6017 176.137 35.6125 176.23C35.6619 176.664 35.3671 177.058 34.9528 177.11C34.1044 177.215 33.2404 177.282 32.3859 177.31C31.9688 177.324 31.6207 176.98 31.6058 176.543C31.5916 176.105 31.9181 175.739 32.3352 175.725C33.1471 175.699 33.9664 175.635 34.7729 175.535C35.0988 175.494 35.401 175.678 35.5395 175.971H35.5389ZM28.9606 176.002C29.0227 176.132 29.0505 176.283 29.0349 176.438C28.991 176.874 28.6192 177.188 28.2041 177.141C27.3537 177.043 26.4965 176.907 25.6575 176.734C25.2486 176.649 24.9808 176.233 25.0599 175.803C25.139 175.373 25.5352 175.093 25.9448 175.178C26.7419 175.342 27.5558 175.472 28.3636 175.564C28.63 175.595 28.849 175.767 28.9599 176.002H28.9606ZM22.5377 174.491C22.6243 174.675 22.6439 174.893 22.5763 175.102C22.4411 175.516 22.0118 175.736 21.6177 175.593C20.8105 175.301 20.0033 174.969 19.2198 174.605C18.8379 174.428 18.6642 173.96 18.8325 173.559C19.0001 173.159 19.4456 172.978 19.8276 173.155C20.5726 173.501 21.3392 173.817 22.1064 174.095C22.3025 174.166 22.4526 174.312 22.5377 174.493V174.491ZM16.5901 171.527C16.7024 171.764 16.6997 172.056 16.557 172.297C16.338 172.67 15.8729 172.784 15.518 172.553C14.7906 172.08 14.0733 171.568 13.3865 171.032C13.0512 170.771 12.9809 170.274 13.2297 169.922C13.4778 169.571 13.951 169.498 14.2856 169.76C14.9386 170.27 15.6194 170.756 16.311 171.205C16.4353 171.286 16.5293 171.399 16.5901 171.527ZM2.65342 146.32C2.70006 146.419 2.72778 146.528 2.73183 146.645C2.76023 147.497 2.82512 148.358 2.92315 149.206C2.97385 149.641 2.6791 150.036 2.26538 150.088C1.85166 150.14 1.47512 149.83 1.42442 149.395C1.32031 148.502 1.25271 147.594 1.22229 146.698C1.20742 146.26 1.53326 145.893 1.95036 145.879C2.25592 145.868 2.52565 146.05 2.65342 146.321V146.32ZM11.4159 167.257C11.5552 167.551 11.5099 167.919 11.278 168.166C10.9853 168.478 10.5074 168.48 10.2106 168.173C9.60083 167.542 9.00999 166.875 8.4543 166.192C8.18457 165.857 8.21973 165.358 8.53678 165.074C8.85383 164.79 9.33042 164.83 9.6015 165.163C10.1295 165.812 10.6899 166.445 11.2692 167.044C11.3307 167.107 11.3801 167.18 11.4159 167.256V167.257ZM3.62485 153.154C3.64716 153.201 3.66541 153.251 3.67893 153.304C3.8885 154.128 4.13457 154.953 4.41038 155.758C4.55167 156.17 4.34819 156.624 3.9561 156.772C3.56401 156.919 3.12933 156.706 2.99007 156.292C2.70006 155.446 2.44115 154.577 2.22009 153.71C2.1126 153.287 2.35191 152.852 2.75482 152.741C3.1077 152.643 3.46869 152.824 3.62552 153.155L3.62485 153.154ZM7.27668 161.882C7.44636 162.241 7.33482 162.683 7.00695 162.902C6.65543 163.136 6.18898 163.027 5.96386 162.658C5.50485 161.901 5.07017 161.113 4.67267 160.315C4.66997 160.311 4.66794 160.305 4.66524 160.301C4.48271 159.915 4.62603 159.446 4.9904 159.246C5.36018 159.044 5.81582 159.194 6.00983 159.583C6.38705 160.34 6.8001 161.088 7.2368 161.807C7.251 161.832 7.26452 161.857 7.27668 161.882Z" fill="url(#paint19_linear_527_1748)"/>
<path d="M2.94609 140.761C3.01234 140.9 3.04005 141.062 3.01707 141.228C2.96029 141.633 2.91094 142.045 2.8697 142.454C2.82576 142.889 2.45395 143.204 2.03955 143.157C1.62516 143.11 1.32365 142.719 1.36827 142.284C1.41153 141.854 1.46359 141.42 1.52308 140.994C1.58392 140.561 1.96722 140.262 2.37959 140.327C2.63377 140.367 2.83996 140.535 2.94609 140.761Z" fill="url(#paint20_linear_527_1748)"/>
</g>
<g opacity="0.3">
<path d="M14.9184 120.142C15.0807 120.485 14.9874 120.91 14.6811 121.139C14.3648 121.376 14.047 121.624 13.7381 121.876C13.4089 122.144 12.935 122.082 12.6781 121.735C12.4205 121.388 12.4807 120.891 12.8093 120.623C13.1344 120.358 13.4684 120.096 13.8016 119.847C14.141 119.593 14.6122 119.676 14.8549 120.033C14.8785 120.068 14.8995 120.105 14.9171 120.142H14.9184Z" fill="url(#paint21_linear_527_1748)"/>
<path d="M58.351 131.572C58.5059 131.899 58.6559 132.229 58.8013 132.565C58.9743 132.964 58.8074 133.433 58.4281 133.615C58.0489 133.796 57.5986 133.617 57.4276 133.22C57.0923 132.447 56.7273 131.69 56.3392 130.962C56.1357 130.579 56.2649 130.097 56.6286 129.883C56.9923 129.669 57.4526 129.807 57.6568 130.189C57.8968 130.639 58.1307 131.104 58.3517 131.571L58.351 131.572ZM60.2047 136.487C60.2236 136.527 60.2392 136.569 60.252 136.613C60.4947 137.46 60.7063 138.328 60.8807 139.192C60.9672 139.621 60.7063 140.041 60.2986 140.131C59.8903 140.221 59.4888 139.945 59.4036 139.517C59.238 138.696 59.0372 137.872 58.8067 137.066C58.6863 136.646 58.9128 136.205 59.3117 136.08C59.6693 135.968 60.0438 136.148 60.2053 136.488L60.2047 136.487ZM55.478 126.694C55.6368 127.029 55.5517 127.445 55.2576 127.678C54.925 127.942 54.4518 127.872 54.1996 127.522C53.7183 126.853 53.2032 126.197 52.6678 125.571C52.3893 125.244 52.4143 124.743 52.7239 124.451C53.0342 124.159 53.5115 124.187 53.7906 124.513C54.3538 125.172 54.8966 125.864 55.4036 126.569C55.4327 126.61 55.457 126.652 55.478 126.696V126.694ZM61.3776 143.177C61.4202 143.267 61.4472 143.367 61.4546 143.474C61.5141 144.355 61.5391 145.251 61.5276 146.134C61.5222 146.572 61.1795 146.921 60.7624 146.914C60.3453 146.907 60.012 146.547 60.0174 146.109C60.0282 145.27 60.0046 144.42 59.9478 143.582C59.918 143.146 60.2317 142.767 60.6475 142.737C60.9618 142.714 61.2451 142.897 61.3776 143.176V143.177ZM51.0264 121.753C51.1562 122.028 51.1278 122.369 50.9277 122.618C50.6587 122.952 50.1821 122.993 49.8637 122.71C49.2546 122.168 48.6144 121.646 47.962 121.158C47.622 120.904 47.5416 120.409 47.7829 120.052C48.0242 119.696 48.4954 119.613 48.8354 119.867C49.523 120.381 50.1963 120.93 50.8378 121.5C50.9189 121.573 50.9825 121.659 51.0271 121.753H51.0264ZM45.6528 117.955C45.7569 118.175 45.763 118.442 45.6467 118.676C45.454 119.064 44.9977 119.213 44.6279 119.01C43.9188 118.62 43.186 118.257 42.4498 117.93C42.0652 117.761 41.884 117.296 42.0455 116.891C42.2071 116.488 42.6492 116.299 43.0339 116.469C43.8086 116.813 44.5799 117.195 45.3263 117.606C45.4729 117.686 45.5845 117.811 45.6528 117.956V117.955ZM39.6214 115.476C39.7005 115.643 39.7241 115.839 39.6748 116.034C39.5673 116.457 39.1536 116.707 38.7507 116.593C37.9773 116.374 37.187 116.187 36.4015 116.037C35.9912 115.958 35.718 115.546 35.7917 115.115C35.8654 114.684 36.2575 114.398 36.6685 114.477C37.4953 114.635 38.3268 114.831 39.1407 115.062C39.3584 115.123 39.5287 115.28 39.622 115.476L39.6214 115.476ZM33.2222 114.435C33.277 114.551 33.3053 114.683 33.2999 114.821C33.283 115.258 32.9315 115.597 32.5151 115.578C31.716 115.542 30.9062 115.541 30.1085 115.576C29.692 115.594 29.3392 115.253 29.3209 114.817C29.3027 114.379 29.6258 114.009 30.0422 113.991C30.8825 113.955 31.735 113.955 32.5766 113.994C32.8619 114.007 33.1032 114.185 33.2222 114.435ZM26.7629 114.896C26.794 114.961 26.8163 115.032 26.8291 115.107C26.9042 115.537 26.6331 115.95 26.2227 116.028C25.4379 116.177 24.649 116.364 23.877 116.582C23.4747 116.697 23.0597 116.444 22.9501 116.023C22.8406 115.601 23.0779 115.165 23.4801 115.051C24.2927 114.821 25.1229 114.625 25.9496 114.468C26.2883 114.404 26.6162 114.587 26.7622 114.896H26.7629ZM20.5652 116.834C20.5719 116.849 20.5787 116.864 20.5848 116.878C20.7477 117.282 20.5679 117.747 20.1846 117.917C19.6424 118.157 19.1016 118.417 18.5756 118.691C18.385 118.79 18.1964 118.891 18.0091 118.994C17.64 119.196 17.1831 119.046 16.9897 118.658C16.7862 118.268 16.9377 117.79 17.3068 117.588C17.5042 117.479 17.7022 117.373 17.903 117.268C18.456 116.98 19.0259 116.707 19.5958 116.455C19.9649 116.291 20.3894 116.46 20.5658 116.833L20.5652 116.834Z" fill="url(#paint22_linear_527_1748)"/>
<path d="M61.1167 149.989C61.1836 150.13 61.2113 150.294 61.187 150.461C61.1255 150.885 61.0545 151.316 60.9754 151.742C60.8956 152.172 60.4995 152.452 60.0905 152.367C59.6815 152.282 59.4138 151.866 59.4936 151.436C59.5686 151.031 59.6362 150.622 59.6943 150.22C59.7565 149.787 60.1419 149.49 60.5542 149.557C60.8071 149.598 61.0112 149.766 61.1167 149.99V149.989Z" fill="url(#paint23_linear_527_1748)"/>
</g>
<path d="M52.8225 153.109C52.8847 152.965 52.8529 152.795 52.7434 152.686L49.6202 149.582C50.0076 147.516 50.0846 145.37 49.8149 143.219L53.1172 140.348C53.2328 140.248 53.2754 140.081 53.222 139.933L51.4029 134.866C51.3495 134.718 51.2129 134.621 51.0628 134.625L46.7728 134.744C45.6229 132.941 44.2148 131.379 42.6235 130.092L43.0203 125.602C43.0345 125.444 42.9513 125.295 42.8141 125.229L38.1198 122.989C37.9826 122.923 37.821 122.956 37.7176 123.071L34.7695 126.344C32.8016 125.932 30.7574 125.846 28.7111 126.124L25.9691 122.649C25.8731 122.527 25.7143 122.483 25.573 122.538L20.753 124.436C20.6124 124.492 20.5205 124.635 20.5252 124.793L20.6489 129.299C18.9352 130.503 17.4514 131.978 16.2305 133.646L11.954 133.219C11.8039 133.204 11.662 133.291 11.5998 133.435L9.47775 138.36C9.41555 138.504 9.44733 138.674 9.55684 138.783L12.68 141.887C12.2927 143.953 12.2156 146.099 12.4853 148.25L9.18301 151.121C9.06741 151.222 9.02482 151.389 9.07822 151.537L10.8974 156.604C10.9508 156.752 11.0873 156.848 11.2374 156.844L15.5274 156.725C16.6773 158.528 18.0855 160.091 19.6761 161.377L19.2793 165.868C19.2651 166.025 19.3482 166.175 19.4855 166.24L24.1797 168.481C24.317 168.546 24.4785 168.513 24.582 168.398L27.5301 165.126C29.4979 165.537 31.5422 165.623 33.5885 165.345L36.3304 168.821C36.4264 168.942 36.586 168.987 36.7266 168.932L41.5466 167.033C41.6872 166.978 41.7791 166.835 41.7751 166.676L41.6513 162.17C43.365 160.967 44.8489 159.492 46.0698 157.823L50.3463 158.25C50.4963 158.265 50.6383 158.179 50.7005 158.035L52.8225 153.109V153.109Z" fill="url(#paint24_linear_527_1748)"/>
<path opacity="0.7" d="M35.7882 143.325C36.9131 145.702 36.2411 148.652 34.109 150.205C31.7652 151.913 28.5319 151.296 26.9006 148.831C26.1097 147.636 25.8095 146.192 26.0529 144.763C26.297 143.334 27.0561 142.09 28.1911 141.264C30.5349 139.556 33.7683 140.172 35.3995 142.638C35.5462 142.86 35.676 143.09 35.7875 143.326L35.7882 143.325ZM27.5915 147.576C27.6781 147.759 27.7781 147.937 27.8917 148.108C29.1423 149.998 31.6219 150.471 33.4188 149.162C35.2156 147.853 35.6604 145.25 34.4091 143.36C33.1585 141.47 30.6789 140.997 28.882 142.306C28.0113 142.94 27.4293 143.893 27.242 144.989C27.0899 145.88 27.2143 146.779 27.5915 147.576Z" fill="white"/>
<path opacity="0.7" d="M42.4361 139.742C42.6295 140.151 42.8039 140.571 42.9594 141.003C43.008 141.139 43.0547 141.276 43.1 141.413C43.3204 142.092 43.4887 142.788 43.6029 143.49C43.6043 143.5 43.6063 143.509 43.6077 143.519C43.6117 143.546 43.6164 143.573 43.6205 143.6C43.6286 143.653 43.6367 143.707 43.6442 143.759C43.6638 143.899 43.5941 144.03 43.4806 144.09C43.4529 144.104 43.4224 144.114 43.39 144.12C43.225 144.145 43.0716 144.025 43.0466 143.852C42.9195 142.96 42.7004 142.077 42.3942 141.226C40.8772 136.998 37.4397 134.106 33.5154 133.232C31.3332 132.746 29.0003 132.885 26.7641 133.766C26.372 133.92 25.99 134.094 25.6196 134.287C23.1284 135.584 21.1558 137.723 19.9944 140.42C18.66 143.517 18.5552 146.978 19.699 150.164C22.0624 156.744 29.0727 160.088 35.3292 157.624C35.7152 157.472 36.0917 157.3 36.4588 157.109C38.0481 156.282 39.4461 155.099 40.5494 153.639C40.5778 153.601 40.6129 153.572 40.6514 153.552C40.7528 153.499 40.8786 153.509 40.9732 153.588C41.1037 153.697 41.1267 153.896 41.0226 154.033C39.8646 155.567 38.3963 156.809 36.7285 157.677C36.3439 157.877 35.9477 158.058 35.5428 158.217C28.974 160.805 21.6128 157.29 19.1339 150.386C17.9326 147.041 18.0435 143.408 19.4442 140.157C20.6637 137.326 22.7343 135.079 25.3492 133.718C25.7379 133.516 26.1387 133.334 26.5504 133.172C29.7324 131.918 33.1916 132.043 36.2911 133.522C38.9898 134.809 41.1341 136.991 42.4361 139.742V139.742Z" fill="white"/>
<g opacity="0.3">
<path d="M77.1401 186.366C77.23 186.556 77.1949 186.792 77.0394 186.943C76.7494 187.225 76.4465 187.502 76.1403 187.765C75.9415 187.936 75.6475 187.905 75.4839 187.696C75.3196 187.487 75.3493 187.178 75.5481 187.007C75.8401 186.756 76.1281 186.492 76.4053 186.223C76.5939 186.04 76.8886 186.053 77.0644 186.251C77.0955 186.286 77.1205 186.325 77.1394 186.366H77.1401Z" fill="url(#paint25_linear_527_1748)"/>
<path d="M74.2961 188.656C74.4015 188.878 74.3312 189.152 74.1278 189.287C73.5518 189.668 72.9501 190.022 72.3404 190.34C72.2119 190.406 72.0821 190.472 71.9517 190.536C71.7184 190.651 71.4433 190.528 71.3304 190.301C71.2202 190.056 71.3203 189.764 71.5528 189.649C71.6779 189.588 71.8016 189.526 71.924 189.461C72.506 189.159 73.0793 188.821 73.6289 188.458C73.8465 188.314 74.1345 188.383 74.2724 188.612C74.2805 188.627 74.2887 188.641 74.2961 188.656ZM69.9169 190.813C69.927 190.834 69.9358 190.856 69.9426 190.878C70.023 191.136 69.8905 191.412 69.6458 191.496C68.8609 191.767 68.0538 191.988 67.2459 192.154C66.9931 192.206 66.7477 192.032 66.6977 191.767C66.6477 191.502 66.8113 191.245 67.0641 191.193C67.8347 191.034 68.6054 190.823 69.3537 190.565C69.5768 190.488 69.8155 190.598 69.9169 190.812V190.813ZM65.1679 191.79C65.1942 191.846 65.2104 191.908 65.2152 191.974C65.2334 192.243 65.0401 192.477 64.7832 192.496C63.9605 192.556 63.1243 192.562 62.2995 192.514C62.042 192.499 61.8452 192.268 61.8588 191.997C61.8723 191.727 62.092 191.521 62.3489 191.535C63.1358 191.581 63.9321 191.575 64.717 191.519C64.911 191.504 65.0861 191.618 65.1679 191.79ZM60.3323 191.51C60.3756 191.601 60.3918 191.707 60.3742 191.814C60.3289 192.08 60.0869 192.257 59.8334 192.209C59.0195 192.055 58.2083 191.846 57.4207 191.588C57.1747 191.508 57.0374 191.233 57.1131 190.975C57.1888 190.717 57.4498 190.573 57.6965 190.653C58.4469 190.899 59.2216 191.098 59.997 191.245C60.1484 191.274 60.2694 191.377 60.333 191.51H60.3323ZM55.7057 189.999C55.7658 190.126 55.7733 190.279 55.7138 190.418C55.6083 190.664 55.3325 190.774 55.0973 190.663C54.3442 190.305 53.6053 189.896 52.9002 189.446C52.6791 189.305 52.6095 189.004 52.7427 188.773C52.8759 188.541 53.1632 188.468 53.3829 188.609C54.0555 189.038 54.7606 189.429 55.4792 189.77C55.5813 189.818 55.659 189.901 55.7057 189.999ZM51.5664 187.355C51.6442 187.519 51.6306 187.723 51.5151 187.877C51.3555 188.088 51.0628 188.124 50.86 187.957C50.2117 187.418 49.5898 186.832 49.0104 186.215C48.8299 186.021 48.8319 185.712 49.0145 185.522C49.1977 185.332 49.4931 185.335 49.6736 185.528C50.2259 186.117 50.8188 186.675 51.4366 187.188C51.4927 187.235 51.5353 187.291 51.5651 187.354L51.5664 187.355ZM48.1667 183.731C48.2641 183.936 48.2127 184.192 48.0336 184.337C47.8294 184.501 47.5367 184.46 47.3792 184.245C46.8783 183.558 46.4111 182.83 45.9913 182.079C45.8642 181.843 45.9352 181.545 46.157 181.409C46.3787 181.273 46.6646 181.351 46.7951 181.584C47.1953 182.3 47.6401 182.995 48.1181 183.65C48.137 183.675 48.1525 183.702 48.1661 183.73L48.1667 183.731ZM44.8874 176.943C44.8996 176.968 44.9097 176.995 44.9171 177.023C45.1091 177.709 45.3396 178.396 45.604 179.064C45.6432 179.166 45.6831 179.265 45.7243 179.363C45.8271 179.612 45.7189 179.9 45.4823 180.007C45.2457 180.114 44.9638 180.001 44.8685 179.751C44.8252 179.646 44.7826 179.541 44.7414 179.434C44.4662 178.735 44.2242 178.016 44.0228 177.297C43.9504 177.037 44.091 176.765 44.3385 176.689C44.5589 176.622 44.7887 176.733 44.8874 176.942V176.943Z" fill="url(#paint26_linear_527_1748)"/>
</g>
<g opacity="0.3">
<path d="M81.255 161.75C81.3686 161.989 81.278 162.28 81.0509 162.403C80.8217 162.526 80.5405 162.43 80.4228 162.19C80.0686 161.464 79.6691 160.756 79.2351 160.083C79.0931 159.859 79.1458 159.555 79.3595 159.403C79.5731 159.252 79.8624 159.311 80.0071 159.535C80.4614 160.241 80.8805 160.983 81.2523 161.743C81.2523 161.743 81.2543 161.748 81.255 161.75ZM82.2163 164.045C82.2237 164.062 82.2305 164.077 82.2366 164.094C82.5185 164.894 82.7578 165.72 82.9464 166.55C83.0059 166.814 82.8518 167.077 82.6016 167.139C82.3508 167.202 82.0994 167.037 82.0392 166.776C81.8594 165.984 81.6316 165.196 81.3625 164.432C81.2726 164.178 81.3963 163.897 81.6376 163.803C81.8634 163.716 82.1122 163.824 82.217 164.045H82.2163ZM78.582 157.605C78.674 157.8 78.6341 158.042 78.4712 158.192C78.2778 158.369 77.9831 158.348 77.8134 158.144C77.3023 157.529 76.7514 156.942 76.1761 156.4C75.9848 156.217 75.9679 155.909 76.1403 155.708C76.312 155.507 76.6067 155.491 76.7987 155.671C77.4017 156.241 77.979 156.856 78.5151 157.5C78.5422 157.533 78.5645 157.568 78.582 157.605ZM83.3216 168.916C83.3452 168.966 83.3608 169.021 83.3676 169.08C83.4588 169.928 83.5007 170.79 83.4919 171.642C83.4892 171.913 83.2783 172.129 83.0208 172.126C82.7639 172.122 82.557 171.9 82.5597 171.63C82.5678 170.816 82.5273 169.994 82.4407 169.186C82.4123 168.917 82.5962 168.675 82.8518 168.646C83.0519 168.623 83.2364 168.736 83.3216 168.915V168.916ZM75.0357 154.26C75.1093 154.415 75.1019 154.607 75.0012 154.759C74.8538 154.981 74.5631 155.034 74.3515 154.879C73.7168 154.413 73.0489 153.981 72.3647 153.599C72.1369 153.472 72.0504 153.174 72.1714 152.936C72.2924 152.697 72.5743 152.606 72.8021 152.734C73.5194 153.136 74.2197 153.587 74.8856 154.077C74.9518 154.125 75.0025 154.19 75.0357 154.261V154.26ZM70.8309 151.903C70.887 152.022 70.8978 152.164 70.8491 152.297C70.7565 152.55 70.4868 152.675 70.2468 152.577C69.5228 152.283 68.7758 152.032 68.0261 151.832C67.7759 151.765 67.6245 151.498 67.6881 151.236C67.7509 150.974 68.0044 150.816 68.2539 150.883C69.0394 151.093 69.8229 151.355 70.5814 151.663C70.6943 151.709 70.7815 151.797 70.8315 151.903L70.8309 151.903ZM66.2116 150.672C66.2515 150.756 66.2691 150.851 66.2563 150.951C66.2245 151.219 65.9906 151.409 65.735 151.374C64.9657 151.27 64.1836 151.215 63.4102 151.21C63.1533 151.208 62.9445 150.987 62.9458 150.717C62.9465 150.447 63.1561 150.228 63.4136 150.23C64.2242 150.236 65.0442 150.293 65.8513 150.403C66.0122 150.424 66.1434 150.53 66.2103 150.672H66.2116Z" fill="url(#paint27_linear_527_1748)"/>
<path d="M83.2709 173.941C83.3108 174.026 83.3284 174.124 83.3155 174.225C83.2628 174.64 83.1979 175.055 83.1228 175.46C83.0735 175.725 82.8288 175.898 82.576 175.846C82.3238 175.793 82.1582 175.536 82.2069 175.27C82.2785 174.885 82.34 174.488 82.3907 174.092C82.4252 173.824 82.6598 173.636 82.9146 173.673C83.0742 173.696 83.204 173.801 83.2702 173.941H83.2709Z" fill="url(#paint28_linear_527_1748)"/>
</g>
<path d="M77.7052 176.382C77.7464 176.286 77.7255 176.172 77.6525 176.099L75.5629 174.022C75.8225 172.639 75.8732 171.203 75.6934 169.764L77.9033 167.843C77.981 167.775 78.0087 167.664 77.9736 167.565L76.7561 164.175C76.7203 164.076 76.629 164.011 76.5283 164.014L73.6572 164.094C72.8879 162.887 71.9456 161.842 70.8808 160.981L71.1465 157.977C71.156 157.871 71.1005 157.771 71.0086 157.727L67.8672 156.228C67.7752 156.184 67.6671 156.206 67.5981 156.282L65.6255 158.473C64.3086 158.197 62.941 158.14 61.5714 158.325L59.7367 156C59.6725 155.918 59.5657 155.888 59.4717 155.925L56.2464 157.196C56.1525 157.233 56.091 157.329 56.0937 157.434L56.1761 160.45C55.0289 161.255 54.0366 162.242 53.2193 163.358L50.3577 163.072C50.2576 163.062 50.1623 163.12 50.1211 163.216L48.7014 166.512C48.6602 166.608 48.6812 166.721 48.7542 166.794L50.8444 168.872C50.5848 170.254 50.5341 171.691 50.7139 173.129L48.504 175.051C48.4263 175.118 48.3986 175.23 48.4337 175.328L49.6512 178.719C49.6871 178.818 49.7783 178.882 49.8791 178.88L52.7501 178.8C53.5194 180.007 54.4618 181.052 55.5265 181.912L55.2608 184.917C55.2514 185.023 55.3068 185.123 55.3987 185.167L58.5402 186.666C58.6321 186.71 58.7403 186.688 58.8092 186.611L60.7818 184.421C62.0987 184.697 63.4663 184.753 64.8359 184.568L66.6706 186.894C66.7348 186.976 66.8416 187.005 66.9356 186.968L70.1609 185.698C70.2548 185.661 70.3164 185.565 70.3137 185.459L70.2312 182.444C71.3784 181.638 72.3708 180.651 73.1881 179.535L76.0496 179.821C76.1497 179.831 76.245 179.773 76.2869 179.677L77.7066 176.382H77.7052Z" fill="url(#paint29_linear_527_1748)"/>
<path opacity="0.7" d="M66.3651 169.812C66.7004 170.52 66.8106 171.318 66.6754 172.11C66.5091 173.084 65.9919 173.93 65.2186 174.494C63.6232 175.656 61.4207 175.237 60.3087 173.558C59.1987 171.874 59.5921 169.566 61.1882 168.403C61.9615 167.839 62.8978 167.626 63.8253 167.803C64.7528 167.98 65.56 168.525 66.0987 169.339C66.1995 169.491 66.288 169.649 66.3651 169.812V169.812ZM60.8799 172.655C60.936 172.773 61.0002 172.888 61.0739 173C61.8919 174.235 63.5116 174.544 64.6859 173.688C65.2544 173.274 65.6357 172.651 65.7574 171.935C65.8797 171.218 65.7283 170.495 65.3328 169.896C64.9367 169.298 64.3431 168.896 63.661 168.767C62.9783 168.637 62.2894 168.793 61.7209 169.208C60.6528 169.986 60.3161 171.465 60.8799 172.656V172.655Z" fill="white"/>
<path opacity="0.7" d="M70.9957 167.324C71.1269 167.602 71.2465 167.888 71.3527 168.184C71.5643 168.772 71.7184 169.384 71.8124 170.002C71.8164 170.03 71.8205 170.058 71.8245 170.086C71.8556 170.302 71.7474 170.504 71.5717 170.596C71.5291 170.619 71.4818 170.634 71.4324 170.642C71.1776 170.681 70.9416 170.496 70.9024 170.229C70.82 169.65 70.678 169.078 70.4806 168.528C70.4698 168.498 70.4583 168.468 70.4475 168.438C69.9689 167.142 69.2002 166.019 68.2166 165.143C67.6826 164.667 67.0843 164.264 66.4333 163.946C66.4279 163.943 66.4225 163.94 66.4177 163.938C66.4015 163.93 66.3853 163.922 66.3691 163.914C64.458 163.002 62.3245 162.925 60.3627 163.698C60.1085 163.798 59.8617 163.91 59.6218 164.036C58.0088 164.875 56.7325 166.26 55.9801 168.006C55.1161 170.011 55.0485 172.251 55.7894 174.314C56.5303 176.375 57.9905 178.015 59.901 178.927C61.8121 179.839 63.9456 179.916 65.9074 179.142C66.1568 179.044 66.4008 178.933 66.6381 178.809C67.667 178.274 68.5722 177.508 69.2861 176.562C69.33 176.504 69.3841 176.459 69.4436 176.428C69.6004 176.347 69.7944 176.362 69.9411 176.484C70.1426 176.653 70.1771 176.96 70.0169 177.172C69.2178 178.229 68.2051 179.087 67.0546 179.686C66.7889 179.825 66.5158 179.949 66.2366 180.059C64.0409 180.924 61.6545 180.838 59.5163 179.818C57.3787 178.797 55.7435 176.966 54.916 174.657C54.0872 172.349 54.1629 169.843 55.1303 167.6C55.9713 165.647 57.4004 164.096 59.2047 163.157C59.4724 163.018 59.7489 162.892 60.0328 162.78C64.2829 161.106 69.0136 163.134 70.9964 167.322L70.9957 167.324Z" fill="white"/>
<defs>
<linearGradient id="paint0_linear_527_1748" x1="218.937" y1="249.587" x2="47.1949" y2="36.2933" gradientUnits="userSpaceOnUse">
<stop stop-color="#D59B68"/>
<stop offset="1" stop-color="#DCC7B5"/>
</linearGradient>
<linearGradient id="paint1_linear_527_1748" x1="130.366" y1="-0.0796923" x2="-74.3907" y2="371.408" gradientUnits="userSpaceOnUse">
<stop stop-color="#D27842"/>
<stop offset="1" stop-color="#664B33"/>
</linearGradient>
<linearGradient id="paint2_linear_527_1748" x1="68.9415" y1="-106.51" x2="75.9383" y2="-35.1426" gradientUnits="userSpaceOnUse">
<stop stop-color="#D27842"/>
<stop offset="1" stop-color="#664B33"/>
</linearGradient>
<linearGradient id="paint3_linear_527_1748" x1="53.8468" y1="46.5925" x2="99.0729" y2="46.5925" gradientUnits="userSpaceOnUse">
<stop stop-color="#D27842"/>
<stop offset="1" stop-color="#664B33"/>
</linearGradient>
<linearGradient id="paint4_linear_527_1748" x1="135.654" y1="189.227" x2="110.33" y2="124.034" gradientUnits="userSpaceOnUse">
<stop stop-color="#FEBBBA"/>
<stop offset="1" stop-color="#FF928E"/>
</linearGradient>
<linearGradient id="paint5_linear_527_1748" x1="136.039" y1="398.923" x2="52.3393" y2="-579.312" gradientUnits="userSpaceOnUse">
<stop stop-color="#FEBBBA"/>
<stop offset="1" stop-color="#FF928E"/>
</linearGradient>
<linearGradient id="paint6_linear_527_1748" x1="133.03" y1="86.0927" x2="122.296" y2="86.0927" gradientUnits="userSpaceOnUse">
<stop stop-color="#FEBBBA"/>
<stop offset="1" stop-color="#FF928E"/>
</linearGradient>
<linearGradient id="paint7_linear_527_1748" x1="114.458" y1="191.076" x2="88.9224" y2="151.899" gradientUnits="userSpaceOnUse">
<stop stop-color="#664B33"/>
<stop offset="1" stop-color="#3D2D1F"/>
</linearGradient>
<linearGradient id="paint8_linear_527_1748" x1="144.458" y1="216.149" x2="109.131" y2="154.036" gradientUnits="userSpaceOnUse">
<stop stop-color="#664B33"/>
<stop offset="0.0001" stop-color="#521F07"/>
<stop offset="0.552083" stop-color="#664B33"/>
</linearGradient>
<linearGradient id="paint9_linear_527_1748" x1="141.725" y1="83.8044" x2="119.338" y2="114.121" gradientUnits="userSpaceOnUse">
<stop stop-color="#343A49"/>
<stop offset="1" stop-color="#664B33"/>
</linearGradient>
<linearGradient id="paint10_linear_527_1748" x1="121.307" y1="62.142" x2="113.684" y2="62.142" gradientUnits="userSpaceOnUse">
<stop stop-color="#FEBBBA"/>
<stop offset="1" stop-color="#FF928E"/>
</linearGradient>
<linearGradient id="paint11_linear_527_1748" x1="209.902" y1="51.4663" x2="178.651" y2="61.7269" gradientUnits="userSpaceOnUse">
<stop stop-color="#D27842"/>
<stop offset="1" stop-color="#F9BC87"/>
</linearGradient>
<linearGradient id="paint12_linear_527_1748" x1="76.5777" y1="66.4888" x2="142.514" y2="104.262" gradientUnits="userSpaceOnUse">
<stop stop-color="#FEBBBA"/>
<stop offset="1" stop-color="#FF928E"/>
</linearGradient>
<linearGradient id="paint13_linear_527_1748" x1="70.0258" y1="77.9251" x2="135.962" y2="115.698" gradientUnits="userSpaceOnUse">
<stop stop-color="#FEBBBA"/>
<stop offset="1" stop-color="#FF928E"/>
</linearGradient>
<linearGradient id="paint14_linear_527_1748" x1="108.609" y1="62.1394" x2="123.424" y2="40.4759" gradientUnits="userSpaceOnUse">
<stop stop-color="#FEBBBA"/>
<stop offset="1" stop-color="#FF928E"/>
</linearGradient>
<linearGradient id="paint15_linear_527_1748" x1="165.566" y1="107.499" x2="123.22" y2="53.6133" gradientUnits="userSpaceOnUse">
<stop stop-color="#EBDBCD"/>
<stop offset="1" stop-color="#664B33"/>
</linearGradient>
<linearGradient id="paint16_linear_527_1748" x1="181.115" y1="-31.7699" x2="151.557" y2="77.3673" gradientUnits="userSpaceOnUse">
<stop stop-color="#EBDBCD"/>
<stop offset="1" stop-color="#D47E3E"/>
</linearGradient>
<linearGradient id="paint17_linear_527_1748" x1="176.135" y1="-5.04494" x2="157.945" y2="49.0586" gradientUnits="userSpaceOnUse">
<stop stop-color="#D27842"/>
<stop offset="1" stop-color="#EBDBCD"/>
</linearGradient>
<linearGradient id="paint18_linear_527_1748" x1="169.735" y1="-19.4294" x2="161.398" y2="61.4802" gradientUnits="userSpaceOnUse">
<stop stop-color="#EBDBCD"/>
<stop offset="1" stop-color="#D27842"/>
</linearGradient>
<linearGradient id="paint19_linear_527_1748" x1="33.17" y1="179.8" x2="13.4721" y2="140.101" gradientUnits="userSpaceOnUse">
<stop stop-color="#FF928E"/>
<stop offset="1" stop-color="#FE7062"/>
</linearGradient>
<linearGradient id="paint20_linear_527_1748" x1="2.77383" y1="142.934" x2="1.60408" y2="140.577" gradientUnits="userSpaceOnUse">
<stop stop-color="#FF928E"/>
<stop offset="1" stop-color="#FE7062"/>
</linearGradient>
<linearGradient id="paint21_linear_527_1748" x1="14.1578" y1="121.702" x2="13.3487" y2="120.071" gradientUnits="userSpaceOnUse">
<stop stop-color="#FF928E"/>
<stop offset="1" stop-color="#FE7062"/>
</linearGradient>
<linearGradient id="paint22_linear_527_1748" x1="50.9447" y1="151.888" x2="30.6362" y2="110.959" gradientUnits="userSpaceOnUse">
<stop stop-color="#FF928E"/>
<stop offset="1" stop-color="#FE7062"/>
</linearGradient>
<linearGradient id="paint23_linear_527_1748" x1="60.9089" y1="152.145" x2="59.7535" y2="149.816" gradientUnits="userSpaceOnUse">
<stop stop-color="#FF928E"/>
<stop offset="1" stop-color="#FE7062"/>
</linearGradient>
<linearGradient id="paint24_linear_527_1748" x1="36.7746" y1="125.153" x2="20.3339" y2="185.317" gradientUnits="userSpaceOnUse">
<stop stop-color="#D27842"/>
<stop offset="1" stop-color="#EBDBCD"/>
</linearGradient>
<linearGradient id="paint25_linear_527_1748" x1="76.5651" y1="187.583" x2="75.987" y2="186.417" gradientUnits="userSpaceOnUse">
<stop stop-color="#FF928E"/>
<stop offset="1" stop-color="#FE7062"/>
</linearGradient>
<linearGradient id="paint26_linear_527_1748" x1="64.5274" y1="194.232" x2="53.5568" y2="172.122" gradientUnits="userSpaceOnUse">
<stop stop-color="#FF928E"/>
<stop offset="1" stop-color="#FE7062"/>
</linearGradient>
<linearGradient id="paint27_linear_527_1748" x1="80.5774" y1="173.405" x2="67.943" y2="147.943" gradientUnits="userSpaceOnUse">
<stop stop-color="#FF928E"/>
<stop offset="1" stop-color="#FE7062"/>
</linearGradient>
<linearGradient id="paint28_linear_527_1748" x1="83.1898" y1="175.659" x2="82.3149" y2="173.896" gradientUnits="userSpaceOnUse">
<stop stop-color="#D27842"/>
<stop offset="1" stop-color="#EBDBCD"/>
</linearGradient>
<linearGradient id="paint29_linear_527_1748" x1="70.267" y1="147.702" x2="53.8263" y2="202.969" gradientUnits="userSpaceOnUse">
<stop stop-color="#D27842"/>
<stop offset="1" stop-color="#EBDBCD"/>
</linearGradient>
</defs>
</svg>
