<svg width="328" height="323" viewBox="0 0 328 323" fill="none" xmlns="http://www.w3.org/2000/svg">
<g clip-path="url(#clip0_476_2023)">
<path d="M259.37 174.58L256.96 175.32C256.96 175.32 257.03 175.72 257.14 176.31C257.24 176.9 257.4 177.69 257.63 178.55C257.82 179.38 258.06 180.22 258.3 180.85C258.51 181.47 258.65 181.9 258.65 181.9L260.98 180.99C260.98 180.99 260.85 180.61 260.67 180.05C260.46 179.5 260.24 178.73 260.06 177.92C259.85 177.16 259.69 176.3 259.58 175.64C259.46 175 259.38 174.57 259.38 174.57L259.37 174.58Z" fill="#D27842"/>
<path d="M258.38 164.23L256 165.75C256 165.75 256.11 167.36 256.22 168.97C256.38 170.58 256.53 172.19 256.53 172.19L258.94 171.2C258.94 171.2 258.78 169.46 258.62 167.72C258.5 165.98 258.39 164.23 258.39 164.23H258.38Z" fill="#D27842"/>
<path d="M257.9 153.88L255.58 156.13L255.83 162.59L258.19 160.82L257.9 153.88Z" fill="#D27842"/>
<path d="M257.37 143.64L255.2 146.51L255.47 152.97L257.75 150.5L257.37 143.64Z" fill="#D27842"/>
<path d="M256.49 133.58L254.52 136.91C254.52 136.91 254.66 138.52 254.8 140.13C254.91 141.74 255.03 143.35 255.03 143.35L257.14 140.32C257.14 140.32 257 138.63 256.85 136.94C256.67 135.26 256.49 133.58 256.49 133.58Z" fill="#D27842"/>
<path d="M254.88 123.7L253.15 127.39C253.15 127.39 253.48 128.97 253.71 130.57C253.99 132.16 254.16 133.76 254.16 133.76L256.06 130.3C256.06 130.3 255.85 128.63 255.53 126.98C255.25 125.32 254.88 123.69 254.88 123.69V123.7Z" fill="#D27842"/>
<path d="M252 114.17L250.55 118.13C250.55 118.13 251.16 119.63 251.6 121.18C252.12 122.71 252.46 124.29 252.46 124.29L254.1 120.52C254.1 120.52 253.72 118.89 253.15 117.31C252.66 115.7 252 114.16 252 114.16V114.17Z" fill="#D27842"/>
<path d="M247.04 105.53L245.93 109.71C245.93 109.71 246.91 111 247.76 112.38C248.16 113.08 248.57 113.77 248.87 114.31C249.13 114.86 249.3 115.22 249.3 115.22L250.65 111.18C250.65 111.18 250.47 110.8 250.18 110.24C249.85 109.7 249.43 108.98 248.99 108.26C248.08 106.85 247.03 105.52 247.03 105.52L247.04 105.53Z" fill="#D27842"/>
<path d="M239.19 99.3501L238.52 103.72C238.52 103.72 240.01 104.37 241.29 105.37C242.67 106.22 243.74 107.46 243.79 107.42L244.77 103.15C244.77 103.15 244.45 102.87 243.97 102.46C243.51 102.03 242.85 101.49 242.13 101.05C240.77 100.03 239.2 99.3501 239.2 99.3501H239.19Z" fill="#D27842"/>
<path d="M229.45 96.8201L229.28 101.26C229.28 101.26 230.9 101.39 232.48 101.69C233.27 101.87 234.06 102.05 234.64 102.19C235.23 102.34 235.6 102.5 235.6 102.5L236.11 98.1001C236.11 98.1001 235.72 97.9301 235.1 97.7701C234.48 97.6301 233.65 97.4401 232.82 97.2601C231.15 96.9401 229.45 96.8101 229.45 96.8101V96.8201Z" fill="#D27842"/>
<path d="M219.51 98.2L219.85 102.62C219.88 102.69 221.32 101.88 222.92 101.65C223.71 101.5 224.51 101.37 225.11 101.25C225.71 101.24 226.12 101.23 226.12 101.23V96.78C226.12 96.78 225.69 96.79 225.06 96.81C224.44 96.92 223.6 97.06 222.76 97.2C221.07 97.44 219.54 98.28 219.52 98.2H219.51Z" fill="#D27842"/>
<path d="M211.9 104.51L212.66 108.8C212.66 108.8 213.65 107.52 214.66 106.26C215.86 105.18 217.05 104.08 217.11 104.15L216.61 99.7699C216.55 99.6799 215.3 100.81 214.03 101.91C213.49 102.55 212.95 103.19 212.55 103.68C212.14 104.15 211.91 104.5 211.91 104.5L211.9 104.51Z" fill="#D27842"/>
<path d="M207.6 113.4L208.67 117.53C208.67 117.53 209.21 116.01 209.75 114.48C210.37 112.99 211.07 111.54 211.07 111.54L210.2 107.3C210.2 107.3 209.45 108.78 208.78 110.3C208.19 111.85 207.6 113.4 207.6 113.4Z" fill="#D27842"/>
<path d="M205.09 122.97L206.42 126.89C206.42 126.89 206.69 125.29 207.06 123.72C207.43 122.15 207.8 120.57 207.8 120.57L206.64 116.5C206.64 116.5 206.22 118.11 205.81 119.72C205.4 121.33 205.09 122.97 205.09 122.97Z" fill="#D27842"/>
<path d="M203.32 132.77L204.9 136.39L205.88 130L204.46 126.17L203.32 132.77Z" fill="#D27842"/>
<path d="M201.75 142.79L203.58 145.92L204.47 139.52L202.8 136.04L201.75 142.79Z" fill="#D27842"/>
<path d="M199.98 152.98L201.99 155.42C201.99 155.42 202.29 153.83 202.59 152.24C202.85 150.65 203.11 149.05 203.11 149.05L201.22 146.11C201.22 146.11 200.93 147.83 200.64 149.54C200.32 151.26 199.99 152.98 199.99 152.98H199.98Z" fill="#D27842"/>
<path d="M197.51 163.13L199.64 164.75C199.64 164.75 200.13 163.2 200.55 161.64C201.02 160.1 201.33 158.51 201.33 158.51L199.28 156.34C199.28 156.34 198.95 158.06 198.46 159.75C198.02 161.45 197.51 163.13 197.51 163.13Z" fill="#D27842"/>
<path d="M193.51 172.43L195.64 173.74C195.64 173.74 196.47 172.22 197.31 170.7C197.96 169.22 198.6 167.74 198.6 167.74L196.43 166.4C196.43 166.4 195.75 168 195.07 169.6C194.3 171.02 193.52 172.44 193.52 172.44L193.51 172.43Z" fill="#D27842"/>
<path d="M187.13 179.29L188.53 181.37C188.53 181.37 189.98 180.33 191.3 179.15C192.52 177.86 193.74 176.59 193.68 176.54L191.72 174.99C191.78 175.04 190.67 176.17 189.59 177.32C188.42 178.37 187.14 179.28 187.14 179.28L187.13 179.29Z" fill="#D27842"/>
<path d="M178.38 182.49L178.72 184.97C178.72 184.97 179.16 184.9 179.8 184.79C180.45 184.65 181.33 184.62 182.16 184.27C183.85 183.72 185.52 183.15 185.49 183.06L184.44 180.79C184.48 180.88 182.97 181.36 181.48 181.87C180.76 182.18 179.93 182.2 179.35 182.33C178.76 182.43 178.37 182.49 178.37 182.49H178.38Z" fill="#D27842"/>
<path d="M168.79 182.33L168.42 184.8C168.42 184.8 170.14 184.98 171.85 185.15C172.7 185.28 173.57 185.28 174.23 185.24C174.88 185.24 175.32 185.22 175.32 185.22L175.25 182.72C175.25 182.66 173.64 182.9 172.03 182.66C170.41 182.5 168.79 182.33 168.79 182.33Z" fill="#D27842"/>
<path d="M160.73 178.25L158.97 180.03C158.97 180.03 160.31 181.23 161.77 182.3C163.42 183.18 165.12 184.09 165.1 183.95L165.76 181.54C165.64 181.64 164.44 180.84 163.12 180.19C161.91 179.28 160.73 178.25 160.73 178.24V178.25Z" fill="#D27842"/>
<path d="M155.61 170.32L153.33 171.33C153.33 171.33 153.51 171.73 153.78 172.32C154.04 172.91 154.38 173.71 154.87 174.44C155.76 175.94 156.68 177.43 156.75 177.4L158.76 175.91C158.7 175.96 157.88 174.59 157.05 173.21C156.6 172.55 156.29 171.8 156.04 171.24C155.79 170.68 155.62 170.32 155.62 170.32H155.61Z" fill="#D27842"/>
<path d="M152.54 161.07L150.11 161.67C150.11 161.67 150.55 163.32 150.98 164.97C151.48 166.6 152.07 168.22 152.07 168.22L154.42 167.38C154.42 167.38 153.86 165.84 153.38 164.27C152.96 162.67 152.54 161.08 152.54 161.08V161.07Z" fill="#D27842"/>
<path d="M150.71 151.38L148.24 151.74C148.24 151.74 148.5 153.41 148.75 155.09C149.08 156.75 149.4 158.42 149.4 158.42L151.85 157.92C151.85 157.92 151.53 156.29 151.21 154.67C150.96 153.02 150.71 151.39 150.71 151.39V151.38Z" fill="#D27842"/>
<path d="M149.61 141.52L147.12 141.73C147.12 141.73 147.27 143.41 147.42 145.1C147.61 146.77 147.8 148.45 147.8 148.45L150.28 148.14C150.28 148.14 150.09 146.49 149.9 144.84C149.76 143.18 149.61 141.52 149.61 141.52Z" fill="#D27842"/>
<path d="M148.98 131.61L146.48 131.71L146.86 138.45L149.35 138.27L148.98 131.61Z" fill="#D27842"/>
<path d="M148.7 121.65L146.2 121.69L146.37 128.42L148.87 128.33L148.7 121.65Z" fill="#D27842"/>
<path d="M148.62 111.68H146.12L146.15 118.41L148.64 118.38L148.62 111.68Z" fill="#D27842"/>
<path d="M148.69 101.71L146.2 101.68L146.13 108.39L148.63 108.4L148.69 101.71Z" fill="#D27842"/>
<path d="M146.361 91.6839L146.242 98.3928L148.742 98.4373L148.861 91.7284L146.361 91.6839Z" fill="#D27842"/>
<path d="M149.04 81.7399L146.53 81.6899L146.42 88.3999L148.91 88.4399L149.04 81.7399Z" fill="#D27842"/>
<path d="M146.7 71.7067L146.62 78.4163L149.12 78.4459L149.2 71.7364L146.7 71.7067Z" fill="#D27842"/>
<path d="M149.23 61.72L146.73 61.73L146.72 68.43L149.22 68.45L149.23 61.72Z" fill="#D27842"/>
<path d="M149.07 51.7L146.58 51.7799L146.71 58.4599L149.21 58.43L149.07 51.7Z" fill="#D27842"/>
<path d="M148.56 41.6599L146.06 41.8599C146.06 41.8599 146.21 43.5199 146.29 45.1799C146.38 46.8399 146.47 48.5099 146.47 48.5099L148.97 48.3999C148.97 48.3999 148.88 46.7199 148.78 45.0299C148.71 43.3399 148.55 41.6599 148.56 41.6599Z" fill="#D27842"/>
<path d="M147.35 31.6299L144.89 32.0599C144.89 32.0599 145.22 33.6699 145.39 35.3199C145.59 36.9699 145.79 38.6099 145.79 38.6099L148.27 38.3599C148.27 38.3599 148.07 36.6599 147.86 34.9799C147.68 33.2899 147.34 31.6199 147.34 31.6199L147.35 31.6299Z" fill="#D27842"/>
<path d="M144.58 21.74L142.28 22.73L142.38 22.92L143.46 25.86C143.76 26.86 143.99 27.89 144.26 28.91L146.69 28.35C146.41 27.27 146.17 26.18 145.84 25.1L144.67 21.94L144.57 21.75L144.58 21.74Z" fill="#D27842"/>
<path d="M139.37 12.8999L137.37 14.3999C137.37 14.3999 138.33 15.6999 139.3 17.0099C140.05 18.4599 140.81 19.8999 140.81 19.8999L143.02 18.7399C143.02 18.7399 142.22 17.2199 141.42 15.6899C140.4 14.2999 139.38 12.8999 139.38 12.8999H139.37Z" fill="#D27842"/>
<path d="M132.13 5.55005L130.66 7.56005C130.66 7.56005 131.01 7.75005 131.49 8.12005C131.93 8.53005 132.52 9.09005 133.11 9.64005C134.29 10.75 135.47 11.85 135.47 11.85L137.33 10.19C137.33 10.19 136.07 8.99005 134.79 7.80005C134.16 7.20005 133.52 6.60005 133.04 6.16005C132.52 5.76005 132.14 5.55005 132.13 5.55005Z" fill="#D27842"/>
<path d="M122.81 0.949951L122.14 3.35995C122.16 3.26995 123.63 3.92995 125.13 4.49995C125.87 4.80995 126.64 5.04995 127.16 5.33995C127.67 5.66995 128.01 5.87995 128.01 5.87995L129.24 3.69995C129.24 3.69995 128.87 3.46995 128.32 3.11995C127.75 2.79995 126.9 2.52995 126.09 2.19995C124.45 1.56995 122.83 0.869951 122.81 0.959951V0.949951Z" fill="#D27842"/>
<path d="M112.43 0.0600478L112.68 2.55005C112.68 2.55005 113.08 2.52005 113.68 2.52005C114.28 2.52005 115.08 2.52005 115.88 2.52005C117.49 2.39005 119.06 2.79005 119.06 2.79005L119.43 0.310048C119.43 0.310048 117.7 -0.0999522 115.94 0.0200478C115.06 0.0200478 114.18 0.0200478 113.53 0.0300478C112.87 0.0300478 112.44 0.0400478 112.43 0.0600478Z" fill="#D27842"/>
<path d="M102.43 2.83995L103.48 5.10995C103.48 5.10995 109.51 2.82995 109.59 3.13995L109.06 0.699951C109.06 0.699951 107.31 0.929951 105.7 1.63995C104.06 2.24995 102.43 2.85995 102.43 2.85995V2.83995Z" fill="#D27842"/>
<path d="M93.8401 8.63002L95.5301 10.47C95.5301 10.47 96.7901 9.47002 98.0601 8.46002C99.2601 7.35002 100.74 6.66002 100.74 6.66002L99.4601 4.52002C99.4601 4.52002 97.8701 5.29002 96.5701 6.46002C95.2101 7.54002 93.8501 8.63002 93.8501 8.63002H93.8401Z" fill="#D27842"/>
<path d="M87.38 16.6801L89.53 17.9601C89.53 17.9601 90.42 16.6101 91.31 15.2601C92.16 13.8701 93.43 12.8101 93.37 12.7701L91.51 11.1101C91.56 11.1501 90.21 12.2901 89.3 13.7701C88.34 15.2301 87.39 16.6801 87.39 16.6801H87.38Z" fill="#D27842"/>
<path d="M83.4601 26.2L85.8701 26.84C85.8701 26.84 86.2701 25.26 86.7501 23.72C87.4201 22.25 88.0801 20.77 88.0801 20.77L85.8201 19.71C85.8201 19.71 85.1101 21.29 84.4001 22.88C83.8801 24.53 83.4601 26.21 83.4601 26.21V26.2Z" fill="#D27842"/>
<path d="M82.07 36.43L84.57 36.37C84.57 36.37 84.56 35.97 84.54 35.36C84.6 34.76 84.69 33.96 84.78 33.15C84.95 31.53 85.12 29.93 85.12 29.93L82.66 29.5C82.66 29.5 82.47 31.22 82.29 32.94C82.2 33.81 82.11 34.68 82.04 35.33C82.05 35.98 82.07 36.42 82.07 36.42V36.43Z" fill="#D27842"/>
<path d="M83.7001 46.55L86.1201 45.93C86.1201 45.93 85.7101 44.33 85.3801 42.72C85.1801 41.92 85.0401 41.11 84.9701 40.52C84.8801 39.92 84.8301 39.52 84.8301 39.52L82.3501 39.82C82.3501 39.82 82.4101 40.25 82.5101 40.9C82.5801 41.55 82.7401 42.4 82.9401 43.23C83.3001 44.91 83.7101 46.56 83.7101 46.56L83.7001 46.55Z" fill="#D27842"/>
<path d="M86.6101 56.2001L88.9801 55.41C88.9801 55.41 88.4201 53.83 87.9501 52.23C87.4601 50.64 86.9701 49.05 86.9701 49.05L84.5701 49.7401C84.5701 49.7401 85.0701 51.3601 85.5701 52.9701C86.0501 54.6001 86.6101 56.18 86.6101 56.18V56.2001Z" fill="#D27842"/>
<path d="M89.94 65.66L92.29 64.8L90.04 58.5L87.67 59.32L89.94 65.66Z" fill="#D27842"/>
<path d="M93.4201 75.0401L95.7501 74.1601L93.4201 67.8801L91.0701 68.7401L93.4201 75.0401Z" fill="#D27842"/>
<path d="M96.8801 84.4L99.2301 83.54L96.9101 77.24L94.5601 78.12L96.8801 84.4Z" fill="#D27842"/>
<path d="M100.21 93.7901L102.57 92.9801L100.34 86.6401L98.0001 87.4801L100.21 93.7901Z" fill="#D27842"/>
<path d="M103.28 103.25L105.67 102.53L103.63 96.1001L101.26 96.8901L103.28 103.25Z" fill="#D27842"/>
<path d="M105.91 112.82L108.34 112.22C108.34 112.22 107.96 110.58 107.5 108.95C107.06 107.32 106.62 105.69 106.62 105.69L104.22 106.38C104.22 106.38 104.65 107.98 105.09 109.59C105.54 111.19 105.91 112.81 105.91 112.81V112.82Z" fill="#D27842"/>
<path d="M107.82 122.49L110.3 122.13C110.3 122.13 110.05 120.45 109.73 118.78C109.45 117.1 109.08 115.45 109.08 115.45L106.63 115.97C106.63 115.97 106.99 117.59 107.27 119.22C107.58 120.85 107.82 122.49 107.82 122.49Z" fill="#D27842"/>
<path d="M108.45 132.22L110.95 132.3C110.95 132.3 111.06 130.57 110.92 128.87C110.88 128.02 110.83 127.15 110.8 126.52C110.76 125.88 110.7 125.46 110.69 125.46L108.21 125.71C108.21 125.71 108.28 126.11 108.31 126.73C108.34 127.34 108.38 128.16 108.42 128.98C108.56 130.62 108.45 132.23 108.45 132.23V132.22Z" fill="#D27842"/>
<path d="M106.79 141.57L109.12 142.49C109.12 142.49 109.64 140.8 110.18 139.12C110.46 137.4 110.74 135.67 110.74 135.67L108.26 135.38C108.26 135.38 108 136.96 107.75 138.55C107.28 140.05 106.8 141.57 106.8 141.57H106.79Z" fill="#D27842"/>
<path d="M101.18 148.73L102.6 150.77C102.6 150.77 102.96 150.5 103.49 150.08C103.98 149.62 104.83 149.21 105.34 148.45C106.52 147.08 107.63 145.66 107.54 145.61L105.41 144.29C105.5 144.36 104.52 145.54 103.53 146.73C102.48 147.85 101.14 148.67 101.18 148.72V148.73Z" fill="#D27842"/>
<path d="M92.4301 151.91L92.8101 154.38C92.8401 154.68 99.6501 152.78 99.5501 152.46L98.5201 150.18C98.66 150.44 92.5101 152.17 92.4401 151.91H92.4301Z" fill="#D27842"/>
<path d="M82.7501 152.15L82.5601 154.64C82.5601 154.64 82.9801 154.73 83.6301 154.72C84.2701 154.72 85.1301 154.74 85.9901 154.76C86.8501 154.77 87.7101 154.79 88.3501 154.79C88.9901 154.83 89.4201 154.75 89.4201 154.75L89.2801 152.25C89.2901 152.32 87.6501 152.28 86.0201 152.25C85.2001 152.24 84.3901 152.22 83.7701 152.21C83.1601 152.22 82.7501 152.13 82.7501 152.13V152.15Z" fill="#D27842"/>
<path d="M73.04 150.68L72.54 153.13C72.54 153.13 74.21 153.46 75.87 153.8C77.54 154.12 79.25 154.26 79.25 154.26L79.56 151.78C79.56 151.78 77.91 151.64 76.29 151.33C74.66 151 73.04 150.68 73.04 150.68Z" fill="#D27842"/>
<path d="M162.75 244.06C162.38 252.87 154.93 259.68 146.13 259.31C137.31 258.93 130.48 251.49 130.85 242.67C131.25 233.86 138.69 227.05 147.49 227.42C156.3 227.8 163.14 235.24 162.75 244.06Z" fill="#D27842"/>
<path d="M202.32 234.49C197.3 230.01 194.63 222.4 195.64 215.95C196.26 211.92 207.6 204.9 207.6 204.9L190.68 186.51C190.68 186.51 182.74 197.27 178.68 197.55C172.47 198 165.45 194.81 161.67 189.63C159.27 186.33 162.38 173.36 162.38 173.36L137.39 172.28C137.39 172.28 139.35 185.49 136.7 188.55C133.01 192.79 126.44 194.94 121.07 193.87C117.07 193.08 110.6 181.41 110.6 181.41L91.45 197.49C91.45 197.49 101.82 205.89 101.92 209.95C102.09 216.78 98.46 224.31 92.73 228.39C89.4 230.76 76.44 227.48 76.44 227.48L75.04 252.45C75.04 252.45 88.25 250.64 91.28 253.34C96.3 257.84 98.98 265.45 97.97 271.89C97.35 275.92 85.99 282.93 85.99 282.93L102.91 301.31C102.91 301.31 110.84 290.57 114.91 290.28C121.11 289.84 128.15 293.03 131.94 298.2C134.33 301.51 131.24 314.47 131.24 314.47L156.22 315.55C156.22 315.55 154.24 302.34 156.9 299.28C160.6 295.05 167.18 292.88 172.55 293.96C176.54 294.77 183.01 306.43 183.01 306.43L202.15 290.34C202.15 290.34 191.79 281.94 191.67 277.87C191.51 271.05 195.13 263.53 200.86 259.44C204.18 257.09 217.16 260.36 217.16 260.36L218.54 235.39C218.54 235.39 205.35 237.18 202.3 234.48L202.32 234.49ZM145.03 284.73C122.18 283.74 104.45 264.42 105.44 241.56C106.43 218.71 125.75 200.99 148.6 201.97C171.44 202.96 189.19 222.28 188.19 245.13C187.21 267.98 167.89 285.7 145.03 284.72V284.73Z" fill="#D27842"/>
<path d="M178.45 245.29C177.7 262.76 162.93 276.31 145.46 275.55C128 274.79 114.45 260.03 115.22 242.58C115.96 225.09 130.74 211.56 148.2 212.31C165.67 213.07 179.21 227.84 178.46 245.3L178.45 245.29Z" fill="#D27842"/>
<path d="M85.08 135.76C85.08 135.76 88.86 131.35 93.72 131.49C98.07 131.62 93.78 135.64 87.93 139.34L85.08 135.75V135.76Z" fill="#F7B2A0"/>
<path d="M31.31 147.39C27.5 148.05 26.2 151.19 28 156.12C30.76 163.69 46.07 168.15 59.44 167.06C74.63 165.82 88.96 139.35 88.96 139.35C88.96 139.35 89.47 135.81 86.02 135.19C86.02 135.19 70.82 151.07 55.77 152.47C48.37 153.16 39.34 146.02 31.32 147.39H31.31Z" fill="#D27842"/>
<path d="M258.52 75.05H140.97V321.26H258.52V75.05Z" fill="#6D76A1"/>
<path d="M302.82 75.05H235.91V321.26H302.82V75.05Z" fill="#464F72"/>
<path d="M225.97 85.27H150.92V288.72H225.97V85.27Z" fill="#464F72"/>
<path d="M225.97 97.9299H161.77V120.53H225.97V97.9299Z" fill="#C1E4FA"/>
<path d="M207.89 128.83H150.92V151.28H207.89V128.83Z" fill="#C1E4FA"/>
<path d="M221.5 104.26H167.2V114.06H221.5V104.26Z" fill="#64B4D7"/>
<path d="M198.42 135.15H150.92V144.95H198.42V135.15Z" fill="#64B4D7"/>
<path d="M218.28 128.83H207.88V151.28H218.28V128.83Z" fill="#64B4D7"/>
<path d="M199.75 195.28H150.92V288.72H199.75V195.28Z" fill="#64B4D7"/>
<path d="M209.58 286.73C200.09 286.73 188.91 285.46 182.87 280.26C179.94 277.74 178.46 274.5 178.46 270.62C178.46 259.97 185.96 255.39 193.21 250.97C200.47 246.54 207.98 241.95 209.21 231.18C210.68 218.3 202.53 213.41 193.9 208.23C185.93 203.45 177.69 198.51 177.51 187C177.39 179.75 179.47 174.14 183.69 170.32C192.78 162.1 211.12 163.06 226.08 164.79L225.86 166.67C211.3 164.97 193.48 164.01 184.96 171.72C181.1 175.21 179.29 180.19 179.4 186.97C179.57 197.43 187 201.89 194.87 206.61C203.64 211.87 212.7 217.3 211.09 231.4C209.76 243.09 201.49 248.14 194.2 252.59C187.08 256.94 180.36 261.04 180.36 270.63C180.36 273.97 181.59 276.65 184.12 278.83C195.02 288.21 225.54 283.76 225.84 283.71L226.12 285.58C225.51 285.67 218.26 286.73 209.59 286.73H209.58Z" fill="#D27842"/>
<path d="M165.87 288.87L164 288.57C164.1 287.95 166.69 273.33 193.81 271.49C210.63 270.35 217.66 264.75 218.64 259.89C219.17 257.23 217.84 254.74 215.15 253.39C211.79 251.71 205.97 250.5 199.22 249.1C185.79 246.31 169.08 242.85 162.88 233.35C160.52 229.74 159.84 225.48 160.85 220.7C163.57 207.86 173.55 204.27 182.35 201.11C191.83 197.71 200.01 194.76 198.81 181.65C198.46 177.88 196.35 174.68 192.53 172.15C177.64 162.27 140.4 164.76 125.89 169.36C115.28 172.72 107.7 172.88 102.72 169.84C96.68 166.15 95.39 158.45 94.13 151C92.85 143.43 91.65 136.28 85.87 133.41C78.56 129.77 64.38 133.53 42.54 144.92L41.67 143.24C64.39 131.39 78.71 127.73 86.72 131.71C93.37 135.02 94.71 142.98 96 150.68C97.23 158.03 98.4 164.98 103.71 168.22C108.19 170.96 115.27 170.75 125.32 167.56C140.52 162.74 177.98 160.23 193.58 170.57C197.9 173.44 200.29 177.11 200.7 181.48C202.04 196.06 192.36 199.53 183 202.9C174.25 206.04 165.21 209.29 162.7 221.1C161.78 225.44 162.36 229.11 164.46 232.33C170.23 241.17 186.52 244.54 199.61 247.26C206.49 248.69 212.42 249.92 216 251.71C219.43 253.43 221.2 256.79 220.5 260.27C219.38 265.82 211.82 272.18 193.94 273.39C168.44 275.12 165.9 288.74 165.88 288.87H165.87Z" fill="#EBDBCD"/>
<path d="M225.97 216.38H175.33V220H225.97V216.38Z" fill="#6D76A1"/>
<path d="M225.97 227.23H175.33V230.85H225.97V227.23Z" fill="#6D76A1"/>
<path d="M225.97 259.78H175.33V263.4H225.97V259.78Z" fill="#6D76A1"/>
<path d="M48.27 147.42C54.57 152.23 59.93 163.96 62.45 202.32C62.99 210.75 14.07 212.79 13.89 204.33C13.45 181.82 17.31 172.57 23.73 152.28C25.5 146.77 35.81 137.82 48.27 147.43V147.42Z" fill="#D27842"/>
<path d="M95.61 170.33C95.61 170.33 103.36 160.63 102.92 164.97C102.5 169.31 104.19 171.85 97.74 174.39L95.61 170.33Z" fill="#F7B2A0"/>
<path d="M47.94 151.48C39.44 152.68 37.46 157.36 38.36 162.55C39.72 170.49 43.83 183.06 57.81 189.09C71.81 195.14 98.67 174.32 98.67 174.32C98.67 174.32 99.81 170.93 96.52 169.69C96.52 169.69 73.1 181.9 62.08 173.81C56.76 169.89 56 150.35 47.93 151.48H47.94Z" fill="#D27842"/>
<path d="M19.36 317.08C16.2 314.89 16.19 314.44 16.65 313.38C17.03 312.45 17.54 311.53 18.12 310.6L11.87 308.66C11.27 310.92 10.89 312.94 10.85 314.5C11.39 314.92 15.64 318.31 19.36 317.08Z" fill="#FBC6B4"/>
<path d="M10.85 314.51L10.77 314.42C8.84996 319.78 16.56 320.73 20.83 320.29C25.1 319.85 19.36 317.08 19.36 317.08C15.64 318.31 11.39 314.92 10.85 314.5V314.51Z" fill="#FFB502"/>
<path d="M9.95994 308.07C9.89994 310.9 16.8299 313.65 18.1299 311.84C29.2799 296.23 37.8499 266.19 40.7999 254.04C40.9399 253.5 41.0799 252.99 41.1999 252.53C42.8699 247.19 44.7199 247.74 48.9199 223.92C50.3099 216.22 49.1299 203.64 49.1299 203.64L38.6199 202.11L14.3999 198.41C8.62994 207.56 11.3299 229.14 11.7999 238.03C12.2499 245.53 13.5699 257.51 13.4799 263.46C13.0899 284.26 10.2699 289.18 9.93994 308.09L9.95994 308.07Z" fill="#1C2745"/>
<path d="M52.6399 318.72C49.0899 317.16 49.0199 316.7 49.2599 315.57C49.4799 314.61 49.8199 313.6 50.1999 312.58L43.7099 311.82C43.5399 314.14 43.5399 316.18 43.7999 317.76C44.3999 318.06 49.1899 320.61 52.65 318.71L52.6399 318.72Z" fill="#FBC6B4"/>
<path d="M43.7899 317.77C43.7499 317.71 43.6799 317.68 43.6799 317.68C42.7699 323.33 50.5199 322.83 54.6299 321.62C58.7699 320.4 52.6299 318.73 52.6299 318.73C49.1699 320.63 44.3799 318.08 43.7799 317.78L43.7899 317.77Z" fill="#FFB502"/>
<path d="M30.75 242.37C32.57 249.68 36.62 257.22 36.62 267.48C36.62 288.35 38.58 292.97 41.7 311.61C42.04 313.77 46.62 315.13 49.08 314.64C49.46 314.57 49.79 314.46 50.03 314.26C50.27 314.15 50.41 313.99 50.49 313.81C58.55 296.43 63.97 266.85 64.69 254.39C65.1 247.04 64.91 247.95 64.65 221.74C64.58 213.9 61.16 201.75 61.16 201.75L28.59 202.8C24.58 212.88 28.66 233.74 30.75 242.38V242.37Z" fill="#27355C"/>
<path d="M49.08 314.63C49.46 314.56 49.79 314.45 50.03 314.25C54.95 300.5 57.07 285.88 58.89 273.23C60.45 262.51 62.18 250.32 62.23 238.35C62.26 225.24 60.14 213.7 55.94 204C55.86 203.8 55.64 203.73 55.44 203.8C55.26 203.88 55.14 204.11 55.22 204.3C59.39 213.88 61.51 225.36 61.47 238.35C61.44 250.28 59.7 262.44 58.14 273.16C56.29 285.92 54.13 300.77 49.09 314.63H49.08Z" fill="white"/>
<path d="M51.6699 152.7C51.6699 152.7 42.9 163.79 47.4599 182.91C47.4599 182.91 50.75 195 61.41 193.86L63.4399 211.64C63.4399 211.64 41.8099 220.88 11.66 206.31C11.66 206.31 9.20995 177.77 24.33 152.35C24.33 152.35 27.4999 147.5 31.0499 146.4C31.0499 146.4 13.46 175.8 26.88 178.36C40.2999 180.91 48.02 149.32 48.02 149.32L51.66 152.71L51.6699 152.7Z" fill="#1C2745"/>
<path d="M34.8899 139.59C34.8899 139.59 32.5899 149.31 34.4899 151.59C36.3899 153.88 46.5299 151.56 46.0499 147.93C45.4199 143.1 44.1199 139.01 44.1199 139.01L34.8899 139.58V139.59Z" fill="#FBC6B4"/>
<path d="M0.019988 227.24C-0.880012 156.97 32.66 143.71 34.09 143.18L34.75 144.95C34.41 145.08 1.02999 158.4 1.90999 227.21L0.019988 227.24Z" fill="#EBDBCD"/>
<path d="M29.2 129.57C29.2 138.13 33.9899 145.07 39.8899 145.07C42.5399 145.07 48.4399 145.8 50.2999 143.49C52.5999 140.65 52.61 133.36 51.29 128.83C48.24 118.37 43.8099 114.93 37.91 114.93C32.01 114.93 29.2 121.01 29.2 129.57Z" fill="#FBC6B4"/>
<path d="M39.3201 146.07C35.6101 146.27 29.4001 144.98 25.9601 137.36C22.8201 130.4 24.6301 118.78 31.6501 115.22C35.8101 113.11 41.4901 112.76 46.0601 114.94C52.5201 118.01 51.6801 121.93 50.3801 122.58C47.6601 123.92 45.5201 121.79 46.0601 125.51C46.4701 128.37 46.26 134.7 43.6 135.08C40.93 135.46 38.6701 135.48 39.3201 139.33C39.8001 142.25 43.0601 145.88 39.3201 146.08V146.07Z" fill="#000644"/>
<path d="M44.6 127.46C44.6 127.46 59.17 119 55.01 114.83C51.62 111.44 40.1 115.91 40.1 115.91L44.6 127.46Z" fill="#D27842"/>
<path d="M49.31 119.88C47.91 127.64 41.25 131.87 24.5 136.35C24.5 136.35 16.07 121.33 26.94 113.34C36.52 106.31 50.22 114.74 49.3 119.88H49.31Z" fill="#D27842"/>
<path d="M319.96 107.34C315.55 107.34 311.97 103.75 311.97 99.3501C311.97 94.9501 315.55 91.3601 319.96 91.3601C324.37 91.3601 327.95 94.9401 327.95 99.3501C327.95 103.76 324.37 107.34 319.96 107.34ZM319.96 94.9301C317.52 94.9301 315.53 96.9201 315.53 99.3601C315.53 101.8 317.52 103.79 319.96 103.79C322.4 103.79 324.38 101.8 324.38 99.3601C324.38 96.9201 322.39 94.9301 319.96 94.9301Z" fill="#64B4D7"/>
<path d="M322.25 135.39L325.42 135.38L325.38 127.85L322.21 127.87L322.25 135.39Z" fill="#1C2745"/>
<path d="M325.442 139.055L322.282 139.07L322.317 146.6L325.477 146.585L325.442 139.055Z" fill="#1C2745"/>
<path d="M325.505 150.254L322.335 150.269L322.37 157.799L325.54 157.784L325.505 150.254Z" fill="#1C2745"/>
<path d="M325.563 161.455L322.393 161.474L322.437 169.004L325.607 168.985L325.563 161.455Z" fill="#1C2745"/>
<path d="M325.62 172.664L322.45 172.679L322.486 180.209L325.656 180.194L325.62 172.664Z" fill="#1C2745"/>
<path d="M325.674 183.871L322.504 183.889L322.547 191.409L325.717 191.391L325.674 183.871Z" fill="#1C2745"/>
<path d="M325.736 195.083L322.566 195.098L322.601 202.628L325.771 202.613L325.736 195.083Z" fill="#1C2745"/>
<path d="M325.789 206.302L322.619 206.317L322.654 213.837L325.824 213.822L325.789 206.302Z" fill="#1C2745"/>
<path d="M325.841 217.512L322.671 217.527L322.707 225.047L325.877 225.032L325.841 217.512Z" fill="#1C2745"/>
<path d="M325.904 228.722L322.734 228.737L322.77 236.266L325.94 236.252L325.904 228.722Z" fill="#1C2745"/>
<path d="M325.947 239.929L322.787 239.947L322.83 247.477L325.99 247.458L325.947 239.929Z" fill="#1C2745"/>
<path d="M326.01 251.121L322.85 251.136L322.885 258.666L326.045 258.651L326.01 251.121Z" fill="#1C2745"/>
<path d="M326.061 262.341L322.901 262.359L322.946 269.889L326.106 269.87L326.061 262.341Z" fill="#1C2745"/>
<path d="M326.123 273.56L322.953 273.571L322.979 281.101L326.149 281.09L326.123 273.56Z" fill="#1C2745"/>
<path d="M201.2 54.9601L203.36 52.5601C203.36 52.5601 202.28 51.4901 201.21 50.4301C200.21 49.2701 199.21 48.1201 199.21 48.1201L196.7 50.1601C196.7 50.1601 197.78 51.3901 198.85 52.6401C200.03 53.8101 201.2 54.9701 201.2 54.9701V54.9601Z" fill="#D27842"/>
<path d="M210.11 59.8601L210.79 56.6901C210.79 56.6901 209.43 56.4001 208.14 55.7901C207.49 55.4801 206.85 55.1701 206.4 54.8401C205.94 54.5401 205.64 54.3401 205.64 54.3401L203.81 57.0101C203.81 57.0101 204.16 57.2401 204.7 57.5801C205.22 57.9601 205.99 58.3501 206.79 58.7101C208.36 59.4801 210.11 59.8501 210.11 59.8501V59.8601Z" fill="#D27842"/>
<path d="M220.29 58.5301L219 55.5701C219 55.5701 217.64 56.2001 216.25 56.5401C214.87 56.9401 213.47 56.9601 213.47 56.9601L213.57 60.1901C213.57 60.1901 215.37 60.1501 217.05 59.6701C218.74 59.2401 220.28 58.5301 220.28 58.5301H220.29Z" fill="#D27842"/>
<path d="M228.68 53.7L226.95 50.98C226.95 50.98 225.62 51.83 224.28 52.67C222.96 53.46 221.64 54.25 221.64 54.25L223.22 57.07C223.22 57.07 224.61 56.24 226.01 55.41C227.34 54.56 228.68 53.7 228.68 53.7Z" fill="#D27842"/>
<path d="M236.62 49.56L235.64 46.47C235.64 46.47 234 47.01 232.49 47.74C231 48.48 229.61 49.31 229.61 49.31L231.25 52.1C231.25 52.1 232.57 51.32 233.9 50.65C235.25 50 236.61 49.56 236.61 49.56H236.62Z" fill="#D27842"/>
<path d="M244.62 49.9501L245.95 47.0101C245.95 47.0101 244.34 46.2401 242.56 45.9501C240.8 45.5801 239 45.7901 239 45.7901L239.3 49.0101C239.3 49.0101 240.67 48.8401 242 49.1201C243.34 49.3401 244.61 49.9401 244.61 49.9401L244.62 49.9501Z" fill="#D27842"/>
<path d="M251.36 55.35L253.79 53.21C253.79 53.21 252.67 52.01 251.49 50.82C250.85 50.28 250.21 49.73 249.73 49.32C249.23 48.93 248.86 48.71 248.86 48.71L247 51.35C247 51.35 247.31 51.53 247.74 51.88C248.16 52.23 248.72 52.72 249.28 53.19C250.33 54.25 251.35 55.35 251.35 55.35H251.36Z" fill="#D27842"/>
</g>
<defs>
<clipPath id="clip0_476_2023">
<rect width="327.95" height="322.4" fill="white"/>
</clipPath>
</defs>
</svg>
