<svg width="118" height="153" viewBox="0 0 118 153" fill="none" xmlns="http://www.w3.org/2000/svg">
<path d="M114.475 95.1338L106.859 82.4899C105.259 79.6717 103.812 74.3399 103.812 71.217V51.9465C103.812 34.0471 93.3008 18.585 78.1434 11.349C74.1827 4.34157 66.8705 0 58.4921 0C50.1898 0 42.7256 4.49391 38.7649 11.5775C23.9121 18.9658 13.6295 34.2756 13.6295 51.9465V71.217C13.6295 74.3399 12.1823 79.6717 10.5827 82.4137L2.88978 95.1338C-0.156938 100.237 -0.842448 105.873 1.06175 111.053C2.88978 116.156 7.23135 120.117 12.8678 122.021C27.6444 127.048 43.1826 129.485 58.7206 129.485C74.2588 129.485 89.7971 127.048 104.574 122.097C109.905 120.345 114.018 116.308 115.999 111.053C117.979 105.797 117.446 100.008 114.475 95.1338Z" fill="#D29832"/>
<path d="M80.1222 137.178C76.9232 146.014 68.4685 152.336 58.5667 152.336C52.5494 152.336 46.6083 149.899 42.419 145.557C39.9816 143.272 38.1536 140.225 37.0872 137.102C38.0774 137.255 39.0676 137.331 40.134 137.483C41.8858 137.712 43.7139 137.94 45.542 138.092C49.8835 138.473 54.3013 138.702 58.719 138.702C63.0606 138.702 67.4022 138.473 71.6676 138.092C73.2671 137.94 74.8666 137.864 76.39 137.635C77.6087 137.483 78.8274 137.331 80.1222 137.178Z" fill="#D29832"/>
</svg>
