<svg width="127" height="127" viewBox="0 0 127 127" fill="none" xmlns="http://www.w3.org/2000/svg">
<path d="M104.598 40.1521C114.305 40.1521 122.174 32.283 122.174 22.5761C122.174 12.8691 114.305 5 104.598 5C94.8904 5 87.0216 12.8691 87.0216 22.5761C87.0216 32.283 94.8904 40.1521 104.598 40.1521Z" stroke="#D29832" stroke-width="8.78803" stroke-linecap="round" stroke-linejoin="round"/>
<path d="M75.4214 6.17174C71.5547 5.41011 67.6294 5 63.5869 5C31.2469 5 5 31.2469 5 63.5869C5 95.9268 31.2469 122.174 63.5869 122.174C95.9268 122.174 122.174 95.9268 122.174 63.5869C122.174 59.603 121.764 55.6777 121.002 51.9281" stroke="#D29832" stroke-width="8.78803" stroke-linecap="round" stroke-linejoin="round"/>
</svg>
